<svg width="11" height="12" viewBox="0 0 11 12" fill="none" xmlns="http://www.w3.org/2000/svg">
<g opacity="0.9">
<path d="M3.36434 5.38373L5.50072 3.24822L7.63796 5.38546L8.88035 4.14221L5.50072 0.761719L2.12109 4.14134L3.36434 5.38373Z" fill="#FDC228"/>
<path d="M0 6.26083L1.24238 5.01758L2.48563 6.26083L1.24238 7.50321L0 6.26083Z" fill="#FDC228"/>
<path d="M3.36434 7.14052L5.50072 9.27689L7.63796 7.13965L8.88121 8.38116L5.50159 11.7617L2.12109 8.38377L3.36434 7.14052Z" fill="#FDC228"/>
<path d="M8.51367 6.26083L9.75605 5.01758L10.9993 6.25996L9.75605 7.50408L8.51367 6.26083Z" fill="#FDC228"/>
<path d="M6.76148 6.26247L5.50086 5.00098L4.56864 5.9332L4.46091 6.04006L4.24023 6.26073L5.50086 7.52049L6.76148 6.26334V6.26247Z" fill="#FDC228"/>
</g>
</svg>
