<svg width="66" height="42" viewBox="0 0 66 42" fill="none" xmlns="http://www.w3.org/2000/svg">
<g clip-path="url(#clip0_1891_19761)">
<path d="M22.7148 0H47.6773C47.6625 0.335481 47.5483 0.658605 47.3499 0.927181C46.5048 2.39951 45.7443 3.93193 44.9141 5.40426C43.731 7.51188 42.6409 9.67101 41.4473 11.7765C40.691 13.2917 39.8375 14.7598 39.0304 16.2493H24.4788C24.2253 16.2493 23.9739 16.2621 23.7204 16.2772C23.5091 16.8438 23.1584 17.3503 22.8753 17.8718C22.5056 18.4814 22.2056 19.1317 21.8401 19.7412C21.4535 20.5611 20.919 21.2951 20.5303 22.1021C19.7275 23.4864 18.9776 24.8922 18.1917 26.2916C17.372 27.7224 16.5706 29.1733 15.7875 30.6442C15.4558 31.1657 15.1537 31.7044 14.8728 32.256C13.2313 35.1685 11.6426 38.096 9.99898 40.9934C9.85938 41.305 9.67576 41.5942 9.45392 41.8519C6.64415 41.8326 3.83438 41.8519 1.02462 41.8519C0.678537 41.8585 0.334506 41.9075 0 41.9979C0 41.208 0.519702 40.577 0.870395 39.9203C1.29292 39.0296 1.85698 38.2033 2.28162 37.3104C5.64911 31.1893 8.9807 25.0468 12.3376 18.9214C13.0982 17.5907 13.751 16.2321 14.5157 14.9272C15.4706 13.2102 16.36 11.4545 17.3551 9.75686C17.672 9.04645 18.0987 8.39614 18.4473 7.7029C19.6853 5.46436 20.9 3.21294 22.1338 0.974398C22.2793 0.622374 22.4751 0.294049 22.7148 0V0Z" fill="#F0334D"/>
<path d="M51.6408 9.01421C53.3034 6.06311 54.909 3.07982 56.5949 0.141602H65.6115C65.7428 0.148351 65.8731 0.169215 66.0002 0.203843C65.7002 0.665287 65.4488 1.15463 65.1847 1.63539C63.0101 5.60023 60.8419 9.56722 58.68 13.5364C57.7716 15.1525 56.9265 16.8051 56.0054 18.4126L55.9146 18.4448L55.8977 18.6466C51.6584 26.3731 47.4332 34.1053 43.222 41.8433C34.9448 41.849 26.6641 41.8519 18.3799 41.8519C18.851 40.8517 19.4087 39.8966 19.9326 38.9244C22.2988 34.5095 24.7177 30.1441 27.0416 25.7399C32.1259 25.7314 37.2117 25.7314 42.2988 25.7399C45.4403 20.1747 48.5141 14.5794 51.6323 9.01421H51.6408Z" fill="#3943DC"/>
</g>
<defs>
<clipPath id="clip0_1891_19761">
<rect width="66" height="42" fill="white"/>
</clipPath>
</defs>
</svg>
