<svg width="24" height="24" viewBox="0 0 24 24" fill="none" xmlns="http://www.w3.org/2000/svg">
<g opacity="0.8">
<path d="M15.9998 8.00004C17.5911 8.00004 19.1172 8.63218 20.2425 9.7574C21.3677 10.8826 21.9998 12.4087 21.9998 14V21H17.9998V14C17.9998 13.4696 17.7891 12.9609 17.414 12.5858C17.039 12.2108 16.5302 12 15.9998 12C15.4694 12 14.9607 12.2108 14.5856 12.5858C14.2105 12.9609 13.9998 13.4696 13.9998 14V21H9.99982V14C9.99982 12.4087 10.632 10.8826 11.7572 9.7574C12.8824 8.63218 14.4085 8.00004 15.9998 8.00004V8.00004Z"  stroke-width="2" stroke-linecap="round" stroke-linejoin="round"/>
<path d="M6.00018 9H2.00018V21H6.00018V9Z" stroke-width="2" stroke-linecap="round" stroke-linejoin="round"/>
<path d="M4.00018 6.00004C5.10475 6.00004 6.00018 5.10461 6.00018 4.00004C6.00018 2.89547 5.10475 2.00004 4.00018 2.00004C2.89561 2.00004 2.00018 2.89547 2.00018 4.00004C2.00018 5.10461 2.89561 6.00004 4.00018 6.00004Z" stroke-width="2" stroke-linecap="round" stroke-linejoin="round"/>
</g>
</svg>
