<svg width="32" height="32" viewBox="0 0 32 32" fill="none" xmlns="http://www.w3.org/2000/svg">
<path d="M28.2799 21.1867C27.4316 23.1927 26.1049 24.9603 24.4157 26.3351C22.7265 27.7099 20.7262 28.6499 18.5898 29.0731C16.4534 29.4962 14.2458 29.3895 12.1601 28.7624C10.0744 28.1353 8.17405 27.0068 6.62525 25.4756C5.07644 23.9443 3.92631 22.057 3.2754 19.9786C2.62449 17.9002 2.49264 15.694 2.89135 13.5529C3.29007 11.4117 4.20721 9.40085 5.56261 7.69605C6.91801 5.99125 8.6704 4.64444 10.6666 3.77335" stroke="#3794D0" stroke-width="2" stroke-linecap="round" stroke-linejoin="round"/>
<path d="M29.3333 16C29.3333 14.249 28.9885 12.5152 28.3184 10.8975C27.6483 9.27987 26.6662 7.81001 25.4281 6.5719C24.19 5.33378 22.7201 4.35166 21.1024 3.6816C19.4848 3.01153 17.751 2.66666 16 2.66666V16H29.3333Z" stroke="#3794D0" stroke-width="2" stroke-linecap="round" stroke-linejoin="round"/>
</svg>
