<svg width="23" height="28" viewBox="0 0 23 28" fill="none" xmlns="http://www.w3.org/2000/svg">
<mask id="mask0_1003_2839" style="mask-type:alpha" maskUnits="userSpaceOnUse" x="0" y="0" width="23" height="28">
<path fill-rule="evenodd" clip-rule="evenodd" d="M0.333618 0.667236H22.956V27.808H0.333618V0.667236Z" fill="white"/>
</mask>
<g mask="url(#mask0_1003_2839)">
<path fill-rule="evenodd" clip-rule="evenodd" d="M11.6448 2.66675C10.5142 2.66675 3.38084 5.17875 2.55817 5.86541C2.3155 6.10941 2.30617 6.53341 2.35817 9.37208C2.38217 10.7401 2.4155 12.5987 2.4155 15.1721C2.4155 22.1067 10.0448 25.1854 11.6435 25.7521C13.2408 25.1827 20.8742 22.0867 20.8742 15.1721C20.8742 12.5961 20.9075 10.7361 20.9328 9.36808C20.9835 6.53208 20.9742 6.10808 20.7168 5.85208C19.9102 5.17875 12.7755 2.66675 11.6448 2.66675M11.6448 27.8081C11.5475 27.8081 11.4502 27.7947 11.3555 27.7654C10.9088 27.6307 0.415504 24.3481 0.415504 15.1721C0.415504 12.6161 0.382171 10.7667 0.358171 9.40942C0.296838 6.01875 0.283504 5.31208 1.1595 4.43741C2.20617 3.38808 10.1328 0.666748 11.6448 0.666748C13.1555 0.666748 21.0822 3.38808 22.1315 4.43741C23.0062 5.31208 22.9928 6.01875 22.9315 9.40541C22.9075 10.7627 22.8742 12.6121 22.8742 15.1721C22.8742 24.3481 12.3808 27.6307 11.9342 27.7654C11.8395 27.7947 11.7422 27.8081 11.6448 27.8081" fill="#3794D0"/>
</g>
<path fill-rule="evenodd" clip-rule="evenodd" d="M10.7028 17.3593V17.3593C10.4375 17.3593 10.1828 17.254 9.9948 17.066L7.47213 14.5407C7.0828 14.15 7.0828 13.5153 7.47346 13.126C7.8628 12.7353 8.49746 12.7353 8.88813 13.126L10.7028 14.9433L15.1935 10.4527C15.5841 10.062 16.2161 10.062 16.6068 10.4527C16.9975 10.8433 16.9975 11.4767 16.6068 11.8673L11.4095 17.066C11.2228 17.254 10.9681 17.3593 10.7028 17.3593" fill="#3794D0"/>
</svg>
