<svg width="32" height="32" viewBox="0 0 32 32" fill="none" xmlns="http://www.w3.org/2000/svg">
<mask id="mask0_845_10571" style="mask-type:alpha" maskUnits="userSpaceOnUse" x="5" y="2" width="23" height="28">
<path fill-rule="evenodd" clip-rule="evenodd" d="M5.3335 2.66699H27.9559V29.8078H5.3335V2.66699Z" fill="white"/>
</mask>
<g mask="url(#mask0_845_10571)">
<path fill-rule="evenodd" clip-rule="evenodd" d="M16.645 4.6665C15.5143 4.6665 8.38098 7.1785 7.55831 7.86517C7.31564 8.10917 7.30631 8.53317 7.35831 11.3718C7.38231 12.7398 7.41564 14.5985 7.41564 17.1718C7.41564 24.1065 15.045 27.1852 16.6436 27.7518C18.241 27.1825 25.8743 24.0865 25.8743 17.1718C25.8743 14.5958 25.9076 12.7358 25.933 11.3678C25.9836 8.53184 25.9743 8.10784 25.717 7.85184C24.9103 7.1785 17.7756 4.6665 16.645 4.6665ZM16.6447 29.8078C16.5474 29.8078 16.45 29.7945 16.3554 29.7652C15.9087 29.6305 5.41538 26.3478 5.41538 17.1718C5.41538 14.6158 5.38205 12.7665 5.35805 11.4092C5.29672 8.0185 5.28338 7.31184 6.15938 6.43717C7.20605 5.38784 15.1327 2.6665 16.6447 2.6665C18.1554 2.6665 26.0821 5.38784 27.1314 6.43717C28.0061 7.31184 27.9927 8.0185 27.9314 11.4052C27.9074 12.7625 27.8741 14.6118 27.8741 17.1718C27.8741 26.3478 17.3807 29.6305 16.934 29.7652C16.8394 29.7945 16.742 29.8078 16.6447 29.8078Z" fill="#3794D0"/>
</g>
<path d="M19.5 13L14 18.5" stroke="#3794D0" stroke-width="2" stroke-linecap="round" stroke-linejoin="round"/>
<path d="M14 13L19.5 18.5" stroke="#3794D0" stroke-width="2" stroke-linecap="round" stroke-linejoin="round"/>
</svg>
