<svg width="29" height="29" viewBox="0 0 29 29" fill="none" xmlns="http://www.w3.org/2000/svg">
<path fill-rule="evenodd" clip-rule="evenodd" d="M7.62172 19.3372C7.40838 19.3372 7.19372 19.2692 7.01238 19.1305C6.57505 18.7932 6.49238 18.1652 6.82972 17.7278L10.8204 12.5412C10.983 12.3292 11.2244 12.1918 11.4884 12.1585C11.7577 12.1238 12.0217 12.1985 12.2311 12.3652L15.991 15.3185L19.2804 11.0745C19.619 10.6358 20.2457 10.5545 20.683 10.8958C21.1204 11.2345 21.2004 11.8625 20.8617 12.2985L16.955 17.3385C16.7924 17.5492 16.5524 17.6865 16.2884 17.7185C16.0217 17.7545 15.7577 17.6772 15.5471 17.5132L11.7897 14.5612L8.41505 18.9465C8.21772 19.2025 7.92172 19.3372 7.62172 19.3372" fill="#3794D0"/>
<mask id="mask0_1003_6768" style="mask-type:alpha" maskUnits="userSpaceOnUse" x="21" y="0" width="8" height="8">
<path fill-rule="evenodd" clip-rule="evenodd" d="M21.0605 0.666748H28.1859V7.79328H21.0605V0.666748Z" fill="white"/>
</mask>
<g mask="url(#mask0_1003_6768)">
<path fill-rule="evenodd" clip-rule="evenodd" d="M24.6232 2.6665C23.7619 2.6665 23.0605 3.3665 23.0605 4.22917C23.0605 5.0905 23.7619 5.79317 24.6232 5.79317C25.4845 5.79317 26.1859 5.0905 26.1859 4.22917C26.1859 3.3665 25.4845 2.6665 24.6232 2.6665M24.6232 7.79317C22.6592 7.79317 21.0605 6.1945 21.0605 4.22917C21.0605 2.26384 22.6592 0.666504 24.6232 0.666504C26.5885 0.666504 28.1859 2.26384 28.1859 4.22917C28.1859 6.1945 26.5885 7.79317 24.6232 7.79317" fill="#3794D0"/>
</g>
<mask id="mask1_1003_6768" style="mask-type:alpha" maskUnits="userSpaceOnUse" x="0" y="1" width="28" height="28">
<path fill-rule="evenodd" clip-rule="evenodd" d="M0.666748 1.78931H27.1493V28.2706H0.666748V1.78931Z" fill="white"/>
</mask>
<g mask="url(#mask1_1003_6768)">
<path fill-rule="evenodd" clip-rule="evenodd" d="M19.6438 28.2706H8.17184C3.6825 28.2706 0.666504 25.1173 0.666504 20.424V9.64797C0.666504 4.94797 3.6825 1.78931 8.17184 1.78931H17.8625C18.4145 1.78931 18.8625 2.23731 18.8625 2.78931C18.8625 3.34131 18.4145 3.78931 17.8625 3.78931H8.17184C4.82784 3.78931 2.6665 6.08797 2.6665 9.64797V20.424C2.6665 24.0306 4.77584 26.2706 8.17184 26.2706H19.6438C22.9878 26.2706 25.1492 23.976 25.1492 20.424V11.0386C25.1492 10.4866 25.5972 10.0386 26.1492 10.0386C26.7012 10.0386 27.1492 10.4866 27.1492 11.0386V20.424C27.1492 25.1173 24.1332 28.2706 19.6438 28.2706" fill="#3794D0"/>
</g>
</svg>
