<svg width="32" height="32" viewBox="0 0 32 32" fill="none" xmlns="http://www.w3.org/2000/svg">
<path d="M19.5998 8.40006C19.3555 8.64929 19.2187 8.98438 19.2187 9.33339C19.2187 9.68239 19.3555 10.0175 19.5998 10.2667L21.7331 12.4001C21.9824 12.6444 22.3175 12.7812 22.6665 12.7812C23.0155 12.7812 23.3506 12.6444 23.5998 12.4001L28.6265 7.37339C29.2969 8.85497 29.4999 10.5057 29.2084 12.1056C28.9169 13.7055 28.1448 15.1785 26.9948 16.3284C25.8449 17.4783 24.3719 18.2505 22.772 18.542C21.1721 18.8335 19.5214 18.6305 18.0398 17.9601L8.82647 27.1734C8.29604 27.7038 7.57662 28.0018 6.82647 28.0018C6.07633 28.0018 5.35691 27.7038 4.82647 27.1734C4.29604 26.643 3.99805 25.9235 3.99805 25.1734C3.99805 24.4232 4.29604 23.7038 4.82647 23.1734L14.0398 13.9601C13.3694 12.4785 13.1664 10.8277 13.4579 9.22786C13.7494 7.62798 14.5215 6.15493 15.6714 5.00502C16.8213 3.8551 18.2944 3.08295 19.8943 2.79144C21.4942 2.49994 23.1449 2.70294 24.6265 3.37339L19.6131 8.38672L19.5998 8.40006Z" stroke="#3794D0" stroke-width="2" stroke-linecap="round" stroke-linejoin="round"/>
</svg>
