<svg width="24" height="24" viewBox="0 0 24 24" fill="none" xmlns="http://www.w3.org/2000/svg">
<g opacity="0.8">
<path d="M22.9999 2.99996C22.0423 3.67544 20.982 4.19207 19.8599 4.52996C19.2576 3.83747 18.4572 3.34665 17.5669 3.12388C16.6766 2.90112 15.7394 2.95715 14.882 3.28441C14.0245 3.61167 13.2883 4.19436 12.7729 4.95367C12.2574 5.71299 11.9876 6.61229 11.9999 7.52996V8.52996C10.2425 8.57553 8.50115 8.18577 6.93089 7.3954C5.36062 6.60504 4.0102 5.43859 2.99988 3.99996C2.99988 3.99996 -1.00012 13 7.99988 17C5.94041 18.3979 3.48703 19.0989 0.999878 19C9.99988 24 20.9999 19 20.9999 7.49996C20.999 7.22141 20.9722 6.94355 20.9199 6.66996C21.9405 5.66345 22.6607 4.39267 22.9999 2.99996V2.99996Z" stroke-width="2" stroke-linecap="round" stroke-linejoin="round"/>
</g>
</svg>
