<svg width="186" height="32" fill="none" xmlns="http://www.w3.org/2000/svg"><g clip-path="url(#clip0_388_9577)" fill="#fff"><path d="M27.833 5.446c-2.19-2.207-5.019-3.746-8.127-4.421a16.874 16.874 0 00-9.336.626C7.39 2.735 4.817 4.635 2.972 7.113a14.884 14.884 0 00-2.966 8.458 14.817 14.817 0 002.466 8.602c1.696 2.572 4.155 4.607 7.066 5.848a16.849 16.849 0 009.284 1.122c3.143-.51 6.058-1.895 8.374-3.982 3.106-2.8 4.918-6.66 5.038-10.732.12-4.072-1.464-8.023-4.4-10.983zM5.44 25.623c-2.138-2.155-3.503-4.9-3.899-7.841a13.447 13.447 0 011.696-8.525C4.736 6.658 7.061 4.58 9.878 3.32a15.362 15.362 0 019.037-1.072L16.41 5.346a24.208 24.208 0 01-3.91 3.836l-4.391 3.424 5.138 5.027a3.732 3.732 0 011.135 2.576 3.715 3.715 0 01-1.009 2.623l-2.98-3.46.137.724a5.84 5.84 0 01-.138 2.736l-1.678.38v.349a.39.39 0 01-.077.232.421.421 0 01-.204.148l-1.647.545 1.019 1.582 6.618.47 8.6 1.83a15.349 15.349 0 01-9.276 1.452c-3.176-.496-6.094-1.97-8.306-4.197zm17.64-6.395a2.508 2.508 0 01-.748-1.719 2.497 2.497 0 01.667-1.749c.26-.28.582-.502.942-.65a5.777 5.777 0 01-1.717-3.177 5.62 5.62 0 01.535-3.537l.972-1.904a4.34 4.34 0 01-2.867-1.247 3.945 3.945 0 01-1.175-2.786v-.054a14.946 14.946 0 016.3 3.21 13.987 13.987 0 013.968 5.66 13.388 13.388 0 01.7 6.774 13.661 13.661 0 01-2.734 6.29l-4.844-5.111zm29.701 1.364c0-1.14-.4-2.044-1.2-2.71-.8-.666-2.263-1.298-4.387-1.896-2.125-.6-3.677-1.252-4.654-1.96-1.398-.998-2.094-2.31-2.088-3.933 0-1.574.647-2.854 1.94-3.84 1.292-.987 2.945-1.48 4.958-1.479a8.204 8.204 0 013.66.792 5.994 5.994 0 012.504 2.206c.593.945.901 2.04.89 3.156h-1.75c0-1.409-.48-2.542-1.439-3.399-.96-.857-2.248-1.285-3.865-1.284-1.57 0-2.82.352-3.751 1.055a3.291 3.291 0 00-1.398 2.757 3.124 3.124 0 001.257 2.566c.836.66 2.176 1.244 4.019 1.749 1.843.505 3.24 1.029 4.19 1.572a5.97 5.97 0 012.144 1.945 4.88 4.88 0 01.724 2.675 4.668 4.668 0 01-1.938 3.905c-1.296.98-3 1.47-5.115 1.47a10.019 10.019 0 01-3.983-.776c-1.207-.52-2.123-1.246-2.75-2.18a5.63 5.63 0 01-.938-3.212h1.735c0 1.453.543 2.599 1.63 3.44 1.085.84 2.524 1.259 4.315 1.258 1.6 0 2.883-.354 3.85-1.06a3.32 3.32 0 001.44-2.817zm6.781-3.321v8.392h-1.738V5.062h6.997c2.134 0 3.82.545 5.057 1.634 1.237 1.09 1.856 2.595 1.856 4.515 0 1.937-.596 3.43-1.785 4.478-1.19 1.049-2.914 1.574-5.171 1.576l-5.216.006zm0-1.471h5.261c1.681 0 2.965-.401 3.85-1.204.887-.803 1.329-1.923 1.326-3.36 0-1.426-.44-2.561-1.318-3.407-.879-.845-2.127-1.277-3.745-1.296h-5.374V15.8zm20.198.496l6.276-11.234h2.002l-7.422 12.846v7.755H78.88v-7.755L71.478 5.062h2.06l6.221 11.234zm10.777 9.368V5.063h5.74a8.904 8.904 0 014.527 1.153 7.964 7.964 0 013.125 3.304 10.426 10.426 0 011.12 4.903v1.888c0 1.838-.371 3.473-1.115 4.904a7.936 7.936 0 01-3.137 3.297 9.176 9.176 0 01-4.648 1.161l-5.612-.01zm1.734-19.13v17.657h3.893c2.164 0 3.899-.72 5.205-2.16 1.306-1.439 1.959-3.385 1.96-5.84v-1.815c0-2.37-.644-4.268-1.931-5.694-1.288-1.426-2.986-2.142-5.093-2.148h-4.034zm27.077 9.252h-9.606v8.404h11.044v1.473h-12.778V5.062h12.709v1.47h-10.975v7.783h9.606v1.47zm12.087 1.287h-5.974v8.59h-1.738V5.062h6.673c2.19 0 3.902.532 5.134 1.596 1.232 1.064 1.848 2.553 1.847 4.466a5.584 5.584 0 01-1.163 3.492 5.907 5.907 0 01-3.103 2.092l5.135 8.771v.182h-1.851l-4.96-8.588zm-5.974-1.471h5.322c1.458 0 2.629-.416 3.512-1.248.884-.831 1.326-1.908 1.326-3.23 0-1.453-.461-2.582-1.382-3.387-.921-.805-2.214-1.207-3.879-1.204h-4.889l-.01 9.069zm15.627 10.061V5.062h6.065c2.201 0 3.87.455 5.007 1.366 1.137.91 1.706 2.253 1.708 4.028a4.584 4.584 0 01-.868 2.782 4.734 4.734 0 01-2.377 1.69 4.978 4.978 0 012.875 1.752 5.006 5.006 0 011.108 3.184c0 1.816-.585 3.238-1.756 4.264-1.171 1.027-2.8 1.538-4.888 1.535h-6.874zm1.734-11.363h4.74c1.448-.028 2.569-.37 3.364-1.028.794-.657 1.191-1.614 1.193-2.87 0-1.324-.412-2.3-1.235-2.927-.823-.627-2.067-.94-3.731-.942h-4.331V14.3zm0 1.473v8.417h5.205c1.487 0 2.665-.379 3.534-1.137.869-.758 1.305-1.81 1.309-3.156 0-1.271-.416-2.277-1.249-3.016-.833-.74-1.986-1.11-3.458-1.108h-5.341zm26.044 4.109h-9.324l-2.114 5.788h-1.811l7.763-20.608h1.649l7.772 20.6h-1.81l-2.125-5.78zm-8.786-1.47h8.237l-4.119-11.229-4.118 11.228zm25.921-11.879h-7.039v19.13h-1.735V6.533h-7.024V5.062h15.798v1.47z"/></g><defs><clipPath id="clip0_388_9577"><path fill="#fff" d="M0 0h186v32H0z"/></clipPath></defs></svg>