<?xml version="1.0" encoding="utf-8"?><svg viewBox="0 0 90 32" xmlns="http://www.w3.org/2000/svg" xmlns:xlink="http://www.w3.org/1999/xlink"><style>:root>svg{display:none}:root>svg:target{display:block}</style><svg fill="none" viewBox="0 0 33 32" id="accurate" xmlns="http://www.w3.org/2000/svg"><path d="M16.5 29.333c7.364 0 13.333-5.97 13.333-13.333 0-7.364-5.97-13.333-13.333-13.333C9.136 2.667 3.166 8.637 3.166 16c0 7.364 5.97 13.333 13.334 13.333zM29.833 16H24.5M8.5 16H3.167M16.5 8V2.667M16.5 29.333V24" stroke="#3794D0" stroke-width="2" stroke-linecap="round" stroke-linejoin="round"/></svg><svg fill="none" viewBox="0 0 32 32" id="alert" xmlns="http://www.w3.org/2000/svg"><path d="M13.72 5.147L2.427 24a2.667 2.667 0 002.28 4h22.586a2.666 2.666 0 002.28-4L18.28 5.147a2.666 2.666 0 00-4.56 0v0zM16 12v5.333M16 22.667h.013" stroke="#3794D0" stroke-width="2" stroke-linecap="round" stroke-linejoin="round"/></svg><svg fill="none" viewBox="0 0 16 16" id="arrow-down-circle" xmlns="http://www.w3.org/2000/svg"><path d="M8 14.67A6.667 6.667 0 108 1.335a6.667 6.667 0 000 13.333z"/><path d="M5.333 8L8 10.667 10.667 8M8 5.336v5.333"/></svg><svg fill="none" viewBox="0 0 16 16" id="arrow-next" xmlns="http://www.w3.org/2000/svg"><path d="M1 8h14M8 1l7 7-7 7" stroke="#fff" stroke-width="2" stroke-linecap="round" stroke-linejoin="round"/></svg><svg fill="none" viewBox="0 0 32 32" id="avoid" xmlns="http://www.w3.org/2000/svg"><path d="M16 29.333c7.364 0 13.333-5.97 13.333-13.333 0-7.364-5.97-13.333-13.333-13.333C8.636 2.667 2.667 8.637 2.667 16c0 7.364 5.97 13.333 13.333 13.333zM16 10.667V16M16 21.333h.013" stroke="#3794D0" stroke-width="2" stroke-linecap="round" stroke-linejoin="round"/></svg><svg fill="none" viewBox="0 0 18 13" id="check" xmlns="http://www.w3.org/2000/svg"><path d="M17 1L6 12 1 7" stroke="#3794D0" stroke-width="2" stroke-linecap="round" stroke-linejoin="round"/></svg><svg fill="none" viewBox="0 0 24 24" id="close-modal" xmlns="http://www.w3.org/2000/svg"><path d="M12 22c5.523 0 10-4.477 10-10S17.523 2 12 2 2 6.477 2 12s4.477 10 10 10zM15 9l-6 6M9 9l6 6" stroke="#fff" stroke-width="2" stroke-linecap="round" stroke-linejoin="round"/></svg><svg fill="none" viewBox="0 0 32 32" id="dislike" xmlns="http://www.w3.org/2000/svg"><path d="M22.667 2.667h3.56a3.08 3.08 0 013.106 2.666v9.334a3.08 3.08 0 01-3.106 2.666h-3.56M13.333 20v5.333a4 4 0 004 4l5.334-12V2.667H7.627A2.667 2.667 0 004.96 4.933l-1.84 12A2.667 2.667 0 005.787 20h7.546z" stroke="#3794D0" stroke-width="2" stroke-linecap="round" stroke-linejoin="round"/></svg><svg fill="none" viewBox="0 0 32 32" id="dollar" xmlns="http://www.w3.org/2000/svg"><path d="M16 1.333v29.334M22.667 6.667h-10a4.667 4.667 0 100 9.333h6.666a4.667 4.667 0 110 9.333H8" stroke="#3794D0" stroke-width="2" stroke-linecap="round" stroke-linejoin="round"/></svg><svg fill="none" viewBox="0 0 24 24" id="download" xmlns="http://www.w3.org/2000/svg"><path d="M21 15v4a2 2 0 01-2 2H5a2 2 0 01-2-2v-4M7 10l5 5 5-5M12 15V3" stroke="#fff" stroke-width="2" stroke-linecap="round" stroke-linejoin="round"/></svg><svg fill="none" viewBox="0 0 32 32" id="fast" xmlns="http://www.w3.org/2000/svg"><path d="M17.333 25.333l12-9.333-12-9.333v18.666zM2.667 25.333l12-9.333-12-9.333v18.666z" stroke="#3794D0" stroke-width="2" stroke-linecap="round" stroke-linejoin="round"/></svg><svg fill="none" viewBox="0 0 24 29" id="fresh" xmlns="http://www.w3.org/2000/svg"><path d="M5.207 1.8c-.577 0-1.106 0-1.536.058-.474.064-.975.213-1.387.625-.413.413-.562.913-.626 1.387-.058.43-.058.96-.058 1.537V26.8a1 1 0 002 0v-8.333h15.264a3.403 3.403 0 001.928-6.207l-.375-.258a2.268 2.268 0 010-3.737l.375-.258A3.403 3.403 0 0018.864 1.8H5.207z" stroke="#3794D0" stroke-width="2"/></svg><svg fill="none" viewBox="0 0 32 32" id="git-pull" xmlns="http://www.w3.org/2000/svg"><path d="M24 28a4 4 0 100-8 4 4 0 000 8zM8 12a4 4 0 100-8 4 4 0 000 8zM17.333 8h4A2.667 2.667 0 0124 10.667V20M8 12v16" stroke="#3794D0" stroke-width="2" stroke-linecap="round" stroke-linejoin="round"/></svg><svg fill="none" viewBox="0 0 32 32" id="grow" xmlns="http://www.w3.org/2000/svg"><path d="M30.667 8L18 20.667 11.334 14l-10 10" stroke="#3794D0" stroke-width="2" stroke-linecap="round" stroke-linejoin="round"/><path d="M22.666 8h8v8" stroke="#3794D0" stroke-width="2" stroke-linecap="round" stroke-linejoin="round"/></svg><svg fill="none" viewBox="0 0 32 24" id="just" xmlns="http://www.w3.org/2000/svg"><path clip-rule="evenodd" d="M8.653 1.667c-4.472 0-7.907 3.96-7.275 8.387l.308 2.155 1.942 6.796a4.589 4.589 0 008.272 1.22l.5-.776c1.684-2.62 5.515-2.62 7.2 0l.305.475a5.246 5.246 0 009.605-2.094l1.111-7.776c.633-4.427-2.802-8.387-7.274-8.387a7.348 7.348 0 00-2.985.633l-.707.315c-1.368.607-1.921.848-2.479.966a5.667 5.667 0 01-2.353 0c-.558-.118-1.111-.359-2.478-.966l-.708-.315a7.348 7.348 0 00-2.984-.633z" stroke="#3794D0" stroke-width="2"/><path fill-rule="evenodd" clip-rule="evenodd" d="M9.333 7a1 1 0 011 1v1.667H12a1 1 0 010 2h-1.667v1.666a1 1 0 11-2 0v-1.666H6.666a1 1 0 110-2h1.667V8a1 1 0 011-1zm13.333 2.333a1.333 1.333 0 100-2.666 1.333 1.333 0 000 2.666zM20 12a1.333 1.333 0 100-2.667A1.333 1.333 0 0020 12zm6.666-1.333a1.333 1.333 0 11-2.666 0 1.333 1.333 0 012.666 0zm-4 4a1.333 1.333 0 100-2.667 1.333 1.333 0 000 2.667z" fill="#3794D0"/></svg><svg fill="none" viewBox="0 0 24 24" id="linkedin" xmlns="http://www.w3.org/2000/svg"><g opacity=".8" stroke="#3794D0" stroke-width="2" stroke-linecap="round" stroke-linejoin="round"><path d="M16 8a6 6 0 016 6v7h-4v-7a2 2 0 00-4 0v7h-4v-7a6 6 0 016-6v0zM6 9H2v12h4V9zM4 6a2 2 0 100-4 2 2 0 000 4z"/></g></svg><svg fill="none" viewBox="0 0 24 24" id="nextpage" xmlns="http://www.w3.org/2000/svg"><path stroke="#fff" stroke-width="3" d="M1.5 1.5h21v21h-21z"/><path stroke="#fff" stroke-width="3.75" d="M1.326 1.674l21 21"/></svg><svg fill="none" viewBox="0 0 32 32" id="obser" xmlns="http://www.w3.org/2000/svg"><path d="M1.333 16S6.667 5.333 16 5.333 30.667 16 30.667 16 25.333 26.667 16 26.667 1.333 16 1.333 16z" stroke="#3794D0" stroke-width="2" stroke-linecap="round" stroke-linejoin="round"/><path d="M16 20a4 4 0 100-8 4 4 0 000 8z" stroke="#3794D0" stroke-width="2" stroke-linecap="round" stroke-linejoin="round"/></svg><svg fill="none" viewBox="0 0 90 21" id="pie-line" xmlns="http://www.w3.org/2000/svg"><path opacity=".15" d="M1 20.5L17.279 5.701A20 20 0 0130.732.5H90" stroke="#fff"/></svg><svg viewBox="0 0 24 24" id="play-circle" xmlns="http://www.w3.org/2000/svg"><path d="M12 22c5.523 0 10-4.477 10-10S17.523 2 12 2 2 6.477 2 12s4.477 10 10 10z"/><path d="M10 8l6 4-6 4V8z"/></svg><svg fill="none" viewBox="0 0 24 30" id="scenarios" xmlns="http://www.w3.org/2000/svg"><path d="M17.333 4.333H20A2.667 2.667 0 0122.667 7v18.667A2.667 2.667 0 0120 28.333H4a2.667 2.667 0 01-2.667-2.666V7A2.667 2.667 0 014 4.333h2.667" stroke="#3794D0" stroke-width="2" stroke-linecap="round" stroke-linejoin="round"/><path d="M16 1.667H8c-.736 0-1.333.597-1.333 1.333v2.667C6.667 6.403 7.264 7 8 7h8c.736 0 1.333-.597 1.333-1.333V3c0-.736-.596-1.333-1.333-1.333z" stroke="#3794D0" stroke-width="2" stroke-linecap="round" stroke-linejoin="round"/></svg><svg fill="none" viewBox="0 0 23 28" id="secure" xmlns="http://www.w3.org/2000/svg"><mask id="ava" style="mask-type:alpha" maskUnits="userSpaceOnUse" x="0" y="0" width="23" height="28"><path fill-rule="evenodd" clip-rule="evenodd" d="M.334.667h22.622v27.141H.334V.668z" fill="#fff"/></mask><g mask="url(#ava)"><path fill-rule="evenodd" clip-rule="evenodd" d="M11.645 2.667c-1.13 0-8.264 2.512-9.087 3.198-.242.244-.252.668-.2 3.507.024 1.368.058 3.227.058 5.8 0 6.935 7.629 10.013 9.227 10.58 1.598-.57 9.231-3.665 9.231-10.58 0-2.576.034-4.436.059-5.804.05-2.836.041-3.26-.216-3.516-.807-.673-7.941-3.185-9.072-3.185m0 25.141a.976.976 0 01-.29-.043C10.91 27.631.415 24.348.415 15.172c0-2.556-.033-4.405-.057-5.763-.061-3.39-.074-4.097.801-4.972C2.207 3.388 10.133.667 11.646.667c1.51 0 9.437 2.721 10.486 3.77.875.875.862 1.582.8 4.968-.024 1.358-.057 3.207-.057 5.767 0 9.176-10.493 12.459-10.94 12.593a.976.976 0 01-.29.043" fill="#3794D0"/></g><path fill-rule="evenodd" clip-rule="evenodd" d="M10.703 17.36c-.265 0-.52-.106-.708-.294l-2.523-2.525a1.002 1.002 0 011.416-1.415l1.815 1.817 4.49-4.49a.999.999 0 111.414 1.414l-5.197 5.199a.996.996 0 01-.707.293" fill="#3794D0"/></svg><svg fill="none" viewBox="0 0 24 25" id="share-icon" xmlns="http://www.w3.org/2000/svg"><g opacity=".8" stroke="#3794D0" stroke-width="2" stroke-linecap="round" stroke-linejoin="round"><path d="M18 8.5a3 3 0 100-6 3 3 0 000 6zM6 15.5a3 3 0 100-6 3 3 0 000 6zM18 22.5a3 3 0 100-6 3 3 0 000 6zM8.59 14.01l6.83 3.98M15.41 7.01l-6.82 3.98"/></g></svg><svg fill="none" viewBox="0 0 32 32" id="shield-done" xmlns="http://www.w3.org/2000/svg"><mask id="axa" style="mask-type:alpha" maskUnits="userSpaceOnUse" x="5" y="2" width="23" height="28"><path fill-rule="evenodd" clip-rule="evenodd" d="M5.333 2.667h22.623v27.14H5.334V2.668z" fill="#fff"/></mask><g mask="url(#axa)"><path fill-rule="evenodd" clip-rule="evenodd" d="M16.645 4.667c-1.13 0-8.264 2.511-9.087 3.198-.242.244-.252.668-.2 3.507.024 1.368.058 3.226.058 5.8 0 6.934 7.629 10.013 9.228 10.58 1.597-.57 9.23-3.665 9.23-10.58 0-2.576.034-4.436.059-5.804.05-2.836.041-3.26-.216-3.516-.807-.674-7.941-3.186-9.072-3.186zm0 25.14a.976.976 0 01-.29-.042c-.446-.134-10.94-3.417-10.94-12.593 0-2.556-.033-4.405-.057-5.763-.061-3.39-.075-4.097.801-4.972 1.047-1.05 8.974-3.77 10.486-3.77 1.51 0 9.437 2.72 10.486 3.77.875.875.862 1.581.8 4.968-.024 1.357-.057 3.207-.057 5.767 0 9.176-10.493 12.459-10.94 12.593a.976.976 0 01-.29.043z" fill="#3794D0"/></g><path d="M19.5 13L14 18.5M14 13l5.5 5.5" stroke="#3794D0" stroke-width="2" stroke-linecap="round" stroke-linejoin="round"/></svg><svg fill="none" viewBox="0 0 32 32" id="shield-off" xmlns="http://www.w3.org/2000/svg"><path d="M26.253 18.667A9.198 9.198 0 0026.666 16V6.667L16 2.667 11.787 4.24M6.306 6.307l-.973.36V16C5.333 24 16 29.333 16 29.333a27.053 27.053 0 007.493-5.84M1.333 1.333l29.333 29.334" stroke="#3794D0" stroke-width="2" stroke-linecap="round" stroke-linejoin="round"/></svg><svg fill="none" viewBox="0 0 29 29" id="skills" xmlns="http://www.w3.org/2000/svg"><path fill-rule="evenodd" clip-rule="evenodd" d="M7.622 19.337a1 1 0 01-.792-1.61l3.99-5.186a1 1 0 011.411-.176l3.76 2.954 3.29-4.245a.995.995 0 011.402-.178.999.999 0 01.179 1.402l-3.907 5.04a.994.994 0 01-.667.38.988.988 0 01-.74-.205l-3.758-2.952-3.375 4.386a1 1 0 01-.793.39" fill="#3794D0"/><mask id="aza" style="mask-type:alpha" maskUnits="userSpaceOnUse" x="21" y="0" width="8" height="8"><path fill-rule="evenodd" clip-rule="evenodd" d="M21.06.667h7.126v7.126H21.06V.667z" fill="#fff"/></mask><g mask="url(#aza)"><path fill-rule="evenodd" clip-rule="evenodd" d="M24.623 2.667a1.564 1.564 0 000 3.126 1.564 1.564 0 000-3.127m0 5.127A3.568 3.568 0 0121.06 4.23 3.566 3.566 0 0124.623.667a3.566 3.566 0 013.563 3.562 3.567 3.567 0 01-3.563 3.564" fill="#3794D0"/></g><mask id="azb" style="mask-type:alpha" maskUnits="userSpaceOnUse" x="0" y="1" width="28" height="28"><path fill-rule="evenodd" clip-rule="evenodd" d="M.667 1.79h26.482v26.48H.667V1.79z" fill="#fff"/></mask><g mask="url(#azb)"><path fill-rule="evenodd" clip-rule="evenodd" d="M19.644 28.27H8.172c-4.49 0-7.505-3.153-7.505-7.846V9.648c0-4.7 3.016-7.859 7.505-7.859h9.69a1 1 0 010 2h-9.69c-3.344 0-5.506 2.299-5.506 5.859v10.776c0 3.607 2.11 5.847 5.506 5.847h11.472c3.344 0 5.505-2.295 5.505-5.847v-9.385a1 1 0 012 0v9.385c0 4.693-3.016 7.847-7.505 7.847" fill="#3794D0"/></g></svg><svg fill="none" viewBox="0 0 32 32" id="sniper" xmlns="http://www.w3.org/2000/svg"><path d="M16 29.333c7.364 0 13.334-5.97 13.334-13.333 0-7.364-5.97-13.333-13.334-13.333C8.637 2.667 2.667 8.637 2.667 16c0 7.364 5.97 13.333 13.333 13.333zM29.333 16H24M8 16H2.667M16 8V2.667M16 29.333V24" stroke="#3794D0" stroke-width="2" stroke-linecap="round" stroke-linejoin="round"/></svg><svg fill="none" viewBox="0 0 24 24" id="twitter" xmlns="http://www.w3.org/2000/svg"><path d="M23 3a10.9 10.9 0 01-3.14 1.53 4.48 4.48 0 00-7.86 3v1A10.66 10.66 0 013 4s-4 9 5 13a11.64 11.64 0 01-7 2c9 5 20 0 20-11.5-.001-.279-.028-.556-.08-.83A7.72 7.72 0 0023 3v0z" stroke="#3794D0" stroke-width="2" stroke-linecap="round" stroke-linejoin="round" opacity=".8"/></svg><svg fill="none" viewBox="0 0 32 32" id="validate" xmlns="http://www.w3.org/2000/svg"><path d="M29.333 14.773V16a13.333 13.333 0 11-7.906-12.187" stroke="#3794D0" stroke-width="2" stroke-linecap="round" stroke-linejoin="round"/><path d="M29.333 5.333L16 18.68l-4-4" stroke="#3794D0" stroke-width="2" stroke-linecap="round" stroke-linejoin="round"/></svg></svg>