<?xml version="1.0" encoding="utf-8"?><svg viewBox="0 0 90 72" xmlns="http://www.w3.org/2000/svg" xmlns:xlink="http://www.w3.org/1999/xlink"><style>:root>svg{display:none}:root>svg:target{display:block}</style><svg fill="none" viewBox="0 0 33 32" id="accurate" xmlns="http://www.w3.org/2000/svg"><path d="M16.5 29.333c7.364 0 13.333-5.97 13.333-13.333 0-7.364-5.97-13.333-13.333-13.333C9.136 2.667 3.166 8.637 3.166 16c0 7.364 5.97 13.333 13.334 13.333zM29.833 16H24.5M8.5 16H3.167M16.5 8V2.667M16.5 29.333V24" stroke="#3794D0" stroke-width="2" stroke-linecap="round" stroke-linejoin="round"/></svg><svg fill="none" viewBox="0 0 24 25" id="across-filter" xmlns="http://www.w3.org/2000/svg"><path d="M1.629 11.927l4.243-4.243 4.242 4.243M5.872 7.684v9.9M13.629 13.341l4.243 4.243 4.242-4.243M17.872 17.584v-9.9" stroke="#fff" stroke-width="2" stroke-linecap="round" stroke-linejoin="round"/></svg><svg fill="none" viewBox="0 0 32 32" id="alert" xmlns="http://www.w3.org/2000/svg"><path d="M13.72 5.147L2.427 24a2.667 2.667 0 002.28 4h22.586a2.666 2.666 0 002.28-4L18.28 5.147a2.666 2.666 0 00-4.56 0v0zM16 12v5.333M16 22.667h.013" stroke="#3794D0" stroke-width="2" stroke-linecap="round" stroke-linejoin="round"/></svg><svg fill="none" viewBox="0 0 32 32" id="alert-circle" xmlns="http://www.w3.org/2000/svg"><path d="M16 29.333c7.364 0 13.333-5.97 13.333-13.333 0-7.364-5.97-13.333-13.333-13.333C8.636 2.667 2.667 8.637 2.667 16c0 7.364 5.97 13.333 13.333 13.333zM16 10.667V16M16 21.333h.013" stroke="#3794D0" stroke-width="2" stroke-linecap="round" stroke-linejoin="round"/></svg><svg fill="none" viewBox="0 0 16 16" id="arrow-down-circle" xmlns="http://www.w3.org/2000/svg"><path d="M8 14.67A6.667 6.667 0 108 1.335a6.667 6.667 0 000 13.333z"/><path d="M5.333 8L8 10.667 10.667 8M8 5.336v5.333"/></svg><svg fill="none" viewBox="0 0 16 16" id="arrow-next" xmlns="http://www.w3.org/2000/svg"><path d="M1 8h14M8 1l7 7-7 7" stroke="#fff" stroke-width="2" stroke-linecap="round" stroke-linejoin="round"/></svg><svg fill="none" viewBox="0 0 32 32" id="avoid" xmlns="http://www.w3.org/2000/svg"><path d="M16 29.333c7.364 0 13.333-5.97 13.333-13.333 0-7.364-5.97-13.333-13.333-13.333C8.636 2.667 2.667 8.637 2.667 16c0 7.364 5.97 13.333 13.333 13.333zM16 10.667V16M16 21.333h.013" stroke="#3794D0" stroke-width="2" stroke-linecap="round" stroke-linejoin="round"/></svg><svg viewBox="0 0 18 10" id="back" xmlns="http://www.w3.org/2000/svg"><path d="M1 1l8 8 8-8"/></svg><svg fill="none" viewBox="0 0 11 12" id="binance-empty" xmlns="http://www.w3.org/2000/svg"><g opacity=".9" fill="#FDC228"><path d="M3.364 5.384l2.137-2.136 2.137 2.137L8.88 4.142 5.5.762l-3.379 3.38 1.243 1.242zM0 6.26l1.242-1.242L2.486 6.26 1.242 7.503 0 6.261zM3.364 7.14l2.137 2.137L7.638 7.14 8.881 8.38l-3.38 3.38-3.38-3.377L3.364 7.14zM8.514 6.26l1.242-1.242L11 6.26 9.756 7.504 8.514 6.261z"/><path d="M6.761 6.262l-1.26-1.261-.932.932-.108.107-.22.22L5.5 7.52l1.26-1.257z"/></g></svg><svg fill="none" viewBox="0 0 66 42" id="bitmex" xmlns="http://www.w3.org/2000/svg"><g clip-path="url(#ajclip0_1891_19761)"><path d="M22.715 0h24.962a1.686 1.686 0 01-.327.927c-.845 1.473-1.606 3.005-2.436 4.477-1.183 2.108-2.273 4.267-3.467 6.373-.756 1.515-1.61 2.983-2.417 4.472H24.48c-.254 0-.505.013-.759.028-.21.567-.562 1.073-.845 1.595-.37.61-.67 1.26-1.035 1.87-.387.82-.921 1.553-1.31 2.36-.803 1.384-1.552 2.79-2.338 4.19-.82 1.43-1.621 2.881-2.405 4.352-.331.522-.633 1.06-.914 1.612-1.642 2.913-3.23 5.84-4.874 8.737-.14.312-.323.601-.545.859-2.81-.02-5.62 0-8.43 0-.345.007-.69.056-1.024.146 0-.79.52-1.421.87-2.078.423-.89.987-1.717 1.412-2.61 3.367-6.12 6.699-12.263 10.056-18.389.76-1.33 1.413-2.689 2.178-3.994.955-1.717 1.844-3.473 2.84-5.17.316-.71.743-1.36 1.091-2.054 1.238-2.239 2.453-4.49 3.687-6.729a3.9 3.9 0 01.58-.974z" fill="#F0334D"/><path d="M51.64 9.014c1.663-2.95 3.269-5.934 4.955-8.872h9.017c.13.006.261.027.388.062-.3.461-.551.95-.815 1.431a4636.112 4636.112 0 00-6.505 11.901c-.908 1.617-1.754 3.27-2.675 4.877l-.09.032-.017.202a7719.468 7719.468 0 00-12.676 23.196c-8.277.006-16.558.009-24.842.009.471-1 1.029-1.955 1.553-2.928 2.366-4.414 4.785-8.78 7.109-13.184 5.084-.009 10.17-.009 15.257 0 3.141-5.565 6.215-11.16 9.333-16.726h.009z" fill="#3943DC"/></g><defs><clipPath id="ajclip0_1891_19761"><path fill="#fff" d="M0 0h66v42H0z"/></clipPath></defs></svg><svg fill="none" viewBox="0 0 32 32" id="branch" xmlns="http://www.w3.org/2000/svg"><path d="M8 4v16M24 12a4 4 0 100-8 4 4 0 000 8zM8 28a4 4 0 100-8 4 4 0 000 8zM24 12a12 12 0 01-12 12" stroke="#3794D0" stroke-width="2" stroke-linecap="round" stroke-linejoin="round"/></svg><svg fill="none" viewBox="0 0 72 72" id="bybit" xmlns="http://www.w3.org/2000/svg"><path d="M0 36c0 19.882 16.118 36 36 36s36-16.118 36-36S55.882 0 36 0 0 16.118 0 36z" fill="#fff"/><path d="M21.074 50.51c.164.426.326.851.484 1.277.388.9.858 1.763 1.404 2.576a155.39 155.39 0 00-2.565-6.762c.135.989.361 1.962.676 2.908v.001zm-.703-3.072a169.4 169.4 0 012.931 7.42c.268.363.55.717.847 1.061a166.153 166.153 0 00-3.881-9.872c.018.465.056.928.113 1.39" fill="#FFB11A"/><path fill-rule="evenodd" clip-rule="evenodd" d="M20.262 45.971a174.09 174.09 0 014.245 10.34c.236.255.48.502.733.741a174.02 174.02 0 00-4.979-12.149c-.012.355-.012.71 0 1.068" fill="#FFB11A"/><path fill-rule="evenodd" clip-rule="evenodd" d="M20.266 44.851a181.783 181.783 0 015.348 12.541c.22.197.445.386.673.569a180.37 180.37 0 00-5.964-14.02c-.028.302-.047.603-.057.903" fill="#FFB11A"/><path fill-rule="evenodd" clip-rule="evenodd" d="M20.323 43.914a186.728 186.728 0 016.358 14.352c.209.156.42.304.633.448a185.295 185.295 0 00-6.895-15.594c-.04.264-.07.53-.1.796" fill="#FFB11A"/><path fill-rule="evenodd" clip-rule="evenodd" d="M20.424 43.101c2.808 5.42 5.236 10.801 7.312 15.886.2.125.401.245.602.36a192.76 192.76 0 00-7.795-16.962 13.52 13.52 0 00-.121.716" fill="#FFB11A"/><path fill-rule="evenodd" clip-rule="evenodd" d="M20.547 42.371a201.463 201.463 0 018.238 17.214c.191.1.383.195.578.288a200.016 200.016 0 00-8.674-18.16c-.052.22-.1.438-.14.658" fill="#FFB11A"/><path fill-rule="evenodd" clip-rule="evenodd" d="M20.691 41.706a209.957 209.957 0 019.14 18.38c.185.08.372.157.561.23a208.465 208.465 0 00-9.543-19.224c-.055.2-.108.404-.157.61" fill="#FFB11A"/><path fill-rule="evenodd" clip-rule="evenodd" d="M20.85 41.09a219.42 219.42 0 0110.028 19.411c.178.062.358.121.54.177A217.894 217.894 0 0021.02 40.52c-.061.191-.117.382-.17.573" fill="#FFB11A"/><path fill-rule="evenodd" clip-rule="evenodd" d="M21.021 40.516A230.492 230.492 0 0131.93 60.828c.174.048.35.091.528.134a229.124 229.124 0 00-11.251-20.985 13.24 13.24 0 00-.184.538" fill="#FFB11A"/><path fill-rule="evenodd" clip-rule="evenodd" d="M32.983 61.078c.172.034.343.066.515.095a242 242 0 00-12.09-21.69l-.01-.016c-.067.169-.13.34-.192.51a242.654 242.654 0 0111.776 21.099" fill="#FFB11A"/><path d="M34.04 61.252c.167.023.334.044.501.06a256.96 256.96 0 00-12.936-22.313l-.01-.014c-.07.16-.137.32-.2.482l.009.015a258.366 258.366 0 0112.635 21.769v.001z" fill="#FFB11A"/><path d="M35.1 61.356c.161.011.325.017.485.024-4.369-8.092-8.99-15.759-13.762-22.839l-.012-.018c-.072.153-.142.307-.21.462l.009.014A274.686 274.686 0 0135.098 61.36" fill="#FFB11A"/><path d="M36.162 61.39c.158 0 .315-.005.474-.01-4.662-8.242-9.564-16.062-14.598-23.287v-.009c-.075.145-.148.293-.219.44l.012.018c5.666 8.148 10.489 16.062 14.34 22.847" fill="#FFB11A"/><path d="M37.215 61.352c.154-.012.308-.024.463-.04a319.776 319.776 0 00-15.43-23.639c-.075.137-.148.274-.218.411v.009a317.365 317.365 0 0115.186 23.259" fill="#FFB11A"/><path fill-rule="evenodd" clip-rule="evenodd" d="M38.714 61.173a351.28 351.28 0 00-16.232-23.907c-.078.13-.153.262-.226.395a350.34 350.34 0 0116.009 23.582c.149-.02.3-.043.45-.069" fill="#FFB11A"/><path fill-rule="evenodd" clip-rule="evenodd" d="M39.74 60.968a387.908 387.908 0 00-17.017-24.092c-.08.127-.157.254-.234.382a388.659 388.659 0 0116.817 23.81c.146-.032.291-.064.435-.101" fill="#FFB11A"/><path fill-rule="evenodd" clip-rule="evenodd" d="M40.76 60.693A437.77 437.77 0 0022.97 36.494c-.082.121-.163.244-.242.37 6.94 8.772 12.935 17.126 17.605 23.95l.426-.127" fill="#FFB11A"/><path fill-rule="evenodd" clip-rule="evenodd" d="M41.344 60.499c.136-.047.272-.1.407-.149l-.25-.35a499.244 499.244 0 00-18.275-23.867c-.084.117-.167.236-.25.357A496.698 496.698 0 0141.345 60.5" fill="#FFB11A"/><path fill-rule="evenodd" clip-rule="evenodd" d="M42.333 60.115c.132-.056.261-.116.394-.174l-.506-.67a585.417 585.417 0 00-18.735-23.494c-.086.114-.171.23-.255.347a582.741 582.741 0 0119.102 23.99z" fill="#FFB11A"/><path fill-rule="evenodd" clip-rule="evenodd" d="M43.66 59.469a723.512 723.512 0 00-19.91-24.034c-.088.111-.176.224-.26.337A716.822 716.822 0 0143.282 59.67c.125-.064.251-.13.376-.2" fill="#FFB11A"/><path d="M44.57 58.928c-6.709-8.06-13.558-16.001-20.544-23.827-.09.109-.181.218-.27.328a918.087 918.087 0 0120.458 23.724c.12-.072.24-.147.358-.222l-.001-.003zm.885-.599a1283.2 1283.2 0 00-21.15-23.55c-.095.1-.186.211-.276.32A1283.817 1283.817 0 0145.11 58.571c.115-.079.229-.16.342-.243h.002zm.837-.664a2107.417 2107.417 0 00-21.699-23.202c-.095.1-.19.207-.283.31a2092.27 2092.27 0 0121.66 23.159c.11-.087.218-.175.325-.268l-.003.001zm.797-.72a6173.31 6173.31 0 00-22.193-22.793c-.1.1-.2.2-.29.3A6422.252 6422.252 0 0146.786 57.23c.1-.093.2-.19.301-.287v.004zm.744-.772a6379.463 6379.463 0 01-22.636-22.32c-.1.1-.2.194-.301.293A6269.058 6269.058 0 0047.55 56.481c.1-.1.19-.2.286-.307l-.003-.001zm.695-.818a2176.155 2176.155 0 01-23.016-21.791c-.1.093-.2.188-.307.284a2144.976 2144.976 0 0023.058 21.834c.09-.109.179-.218.265-.326v-.001zm.638-.862a1270.354 1270.354 0 01-23.333-21.215l-.315.278a1276.17 1276.17 0 0023.404 21.282l.243-.344zm.577-.901a916.46 916.46 0 01-23.578-20.588c-.109.086-.217.179-.323.27a912.143 912.143 0 0023.683 20.678c.074-.12.148-.24.22-.36h-.002zm.515-.94a716.075 716.075 0 01-23.75-19.92c-.11.087-.224.173-.333.263a714.704 714.704 0 0023.884 20.033l.2-.378" fill="#FFB11A"/><path fill-rule="evenodd" clip-rule="evenodd" d="M50.53 52.09c.059-.13.117-.263.172-.395l-.588-.448A582.586 582.586 0 0126.86 32.475c-.117.083-.232.169-.345.255A580.64 580.64 0 0050.53 52.09z" fill="#FFB11A"/><path fill-rule="evenodd" clip-rule="evenodd" d="M50.935 51.109c.052-.135.1-.27.148-.409-.085-.061-.17-.122-.255-.186a498.195 498.195 0 01-23.605-18.296l-.355.25a495.428 495.428 0 0023.72 18.392l.347.254" fill="#FFB11A"/><path fill-rule="evenodd" clip-rule="evenodd" d="M51.397 49.684c-6.782-4.697-15.082-10.73-23.803-17.713-.122.078-.244.16-.366.243a432.89 432.89 0 0024.047 17.895c.043-.14.083-.282.121-.425" fill="#FFB11A"/><path fill-rule="evenodd" clip-rule="evenodd" d="M51.644 48.654a386.02 386.02 0 01-23.661-16.925c-.128.075-.254.155-.378.234A385.046 385.046 0 0051.546 49.09c.035-.147.067-.292.1-.44" fill="#FFB11A"/><path fill-rule="evenodd" clip-rule="evenodd" d="M51.82 47.602a348.621 348.621 0 01-23.434-16.108c-.133.074-.264.15-.393.228 8.594 6.467 16.865 11.996 23.76 16.33.025-.15.048-.302.067-.452" fill="#FFB11A"/><path fill-rule="evenodd" clip-rule="evenodd" d="M51.928 46.548a317.996 317.996 0 01-23.114-15.275h-.01a16.13 16.13 0 00-.409.221A319.639 319.639 0 0051.89 47.012c.017-.155.03-.31.04-.466" fill="#FFB11A"/><path fill-rule="evenodd" clip-rule="evenodd" d="M51.96 45.96l.007-.477A293.607 293.607 0 0129.26 31.06l-.017-.013c-.148.072-.294.145-.437.22h.009c7.18 5.066 14.95 9.999 23.144 14.69" fill="#FFB11A"/><path d="M51.96 44.909a16.42 16.42 0 00-.025-.49 273.418 273.418 0 01-22.234-13.583c-.152.067-.3.139-.456.212l.018.012C36.3 35.862 43.918 40.51 51.96 44.91" fill="#FFB11A"/><path fill-rule="evenodd" clip-rule="evenodd" d="M51.893 43.856a16.137 16.137 0 00-.058-.506 254.255 254.255 0 01-21.637-12.71l-.015-.01-.478.201.014.008a253.63 253.63 0 0022.174 13.017z" fill="#FFB11A"/><path d="M51.752 42.805c-.028-.174-.06-.347-.093-.519a240.574 240.574 0 01-20.971-11.85c-.17.063-.339.127-.506.195l.015.01a240.104 240.104 0 0021.56 12.164" fill="#FFB11A"/><path fill-rule="evenodd" clip-rule="evenodd" d="M51.408 41.228a227.91 227.91 0 01-20.19-10.977c-.178.06-.357.12-.533.186a226.916 226.916 0 0020.858 11.321 19.358 19.358 0 00-.134-.532" fill="#FFB11A"/><path fill-rule="evenodd" clip-rule="evenodd" d="M51.087 40.167a216.899 216.899 0 01-19.295-10.09c-.19.054-.382.111-.568.174a215.752 215.752 0 0020.035 10.46 16.934 16.934 0 00-.176-.544" fill="#FFB11A"/><path fill-rule="evenodd" clip-rule="evenodd" d="M50.675 39.111a207.33 207.33 0 01-18.273-9.193c-.2.049-.4.1-.601.158a206.49 206.49 0 0019.102 9.603c-.073-.19-.15-.379-.228-.566" fill="#FFB11A"/><path fill-rule="evenodd" clip-rule="evenodd" d="M50.177 38.062a198.963 198.963 0 01-17.111-8.29c-.219.044-.436.091-.652.143a197.853 197.853 0 0018.05 8.725c-.09-.2-.187-.39-.286-.581" fill="#FFB11A"/><path fill-rule="evenodd" clip-rule="evenodd" d="M49.584 37.008a191.334 191.334 0 01-15.787-7.36c-.24.035-.477.077-.715.122a190.579 190.579 0 0016.86 7.846 16.011 16.011 0 00-.358-.608z" fill="#FFB11A"/><path fill-rule="evenodd" clip-rule="evenodd" d="M48.862 35.948A184.482 184.482 0 0134.6 29.551c-.264.026-.528.057-.79.095a183.575 183.575 0 0015.497 6.939 16.529 16.529 0 00-.445-.637z" fill="#FFB11A"/><path fill-rule="evenodd" clip-rule="evenodd" d="M47.995 34.872a178.855 178.855 0 01-12.464-5.384c-.3.012-.601.031-.902.06 4.556 2.197 9.2 4.196 13.93 5.998a15.93 15.93 0 00-.564-.676" fill="#FFB11A"/><path fill-rule="evenodd" clip-rule="evenodd" d="M47.323 34.15a26.198 26.198 0 00-.401-.39 172.918 172.918 0 01-10.278-4.273 15.325 15.325 0 00-1.059 0A173.635 173.635 0 0047.659 34.5c-.11-.117-.22-.233-.333-.347" fill="#FFB11A"/><path d="M45.474 32.554a165.838 165.838 0 01-7.371-2.952 15.841 15.841 0 00-1.38-.115 164.511 164.511 0 009.807 3.925c-.339-.3-.69-.584-1.054-.853l-.002-.005zm-3.05-1.757a161.46 161.46 0 01-1.27-.489 15.715 15.715 0 00-2.891-.678c2.22.91 4.46 1.772 6.719 2.583a15.703 15.703 0 00-2.56-1.416" fill="#FFB11A"/><path d="M51.142 22.13c-.163-.426-.324-.851-.484-1.277-.388-.9-.857-1.763-1.404-2.576a165.463 165.463 0 002.566 6.761 16.07 16.07 0 00-.673-2.908h-.005zm.7 3.072a168.95 168.95 0 01-2.931-7.42c-.268-.366-.55-.72-.849-1.062 1.195 3.33 2.492 6.62 3.893 9.87a16.35 16.35 0 00-.113-1.39" fill="#FFC556"/><path fill-rule="evenodd" clip-rule="evenodd" d="M51.955 26.67a175.44 175.44 0 01-4.247-10.34 15.852 15.852 0 00-.734-.744c1.507 4.11 3.167 8.16 4.98 12.151.011-.356.011-.711 0-1.067" fill="#FFC556"/><path fill-rule="evenodd" clip-rule="evenodd" d="M51.954 27.786a183.028 183.028 0 01-5.352-12.54c-.217-.195-.44-.384-.67-.566a180.384 180.384 0 005.964 14.012c.027-.301.045-.602.057-.903" fill="#FFC556"/><path fill-rule="evenodd" clip-rule="evenodd" d="M51.892 28.724a186.907 186.907 0 01-6.36-14.351c-.206-.155-.417-.301-.63-.448a185.577 185.577 0 006.896 15.595c.038-.266.07-.53.096-.802" fill="#FFC556"/><path fill-rule="evenodd" clip-rule="evenodd" d="M51.791 29.537A194.395 194.395 0 0144.48 13.65c-.2-.124-.402-.244-.602-.358a192.919 192.919 0 007.798 16.962c.046-.239.086-.478.121-.719" fill="#FFC556"/><path fill-rule="evenodd" clip-rule="evenodd" d="M51.672 30.268a201.542 201.542 0 01-8.237-17.213c-.19-.1-.383-.196-.578-.288A199.572 199.572 0 0051.53 30.93c.052-.218.1-.435.142-.656" fill="#FFC556"/><path fill-rule="evenodd" clip-rule="evenodd" d="M51.527 30.934a210.74 210.74 0 01-9.138-18.383 14.26 14.26 0 00-.562-.23 208.604 208.604 0 009.544 19.222c.055-.2.109-.401.157-.609" fill="#FFC556"/><path fill-rule="evenodd" clip-rule="evenodd" d="M51.367 31.549A219.609 219.609 0 0141.34 12.14a14.42 14.42 0 00-.54-.178 218.415 218.415 0 0010.397 20.156c.06-.191.118-.382.172-.572" fill="#FFC556"/><path fill-rule="evenodd" clip-rule="evenodd" d="M51.197 32.126A230.345 230.345 0 0140.29 11.81a14.855 14.855 0 00-.53-.134A229.296 229.296 0 0051.01 32.661c.067-.18.127-.36.186-.538" fill="#FFC556"/><path fill-rule="evenodd" clip-rule="evenodd" d="M39.236 11.56c-.17-.034-.342-.065-.513-.094A242.001 242.001 0 0050.81 33.155l.01.017c.069-.17.13-.34.192-.512a243.343 243.343 0 01-11.777-21.096" fill="#FFC556"/><path fill-rule="evenodd" clip-rule="evenodd" d="M38.178 11.386a14.295 14.295 0 00-.501-.059A256.997 256.997 0 0050.613 33.64l.009.017c.07-.161.138-.32.2-.483l-.009-.014a260.34 260.34 0 01-12.635-21.773z" fill="#FFC556"/><path fill-rule="evenodd" clip-rule="evenodd" d="M37.118 11.28c-.162-.01-.325-.016-.487-.021C41 19.35 45.62 27.014 50.394 34.096l.011.017c.074-.152.144-.3.212-.46l-.01-.016a274.953 274.953 0 01-13.489-22.356z" fill="#FFC556"/><path d="M36.058 11.25c-.158 0-.317 0-.475.009 4.664 8.243 9.563 16.062 14.598 23.288l.007.007c.074-.145.147-.293.217-.44l-.011-.017C44.726 25.95 39.905 18.036 36.056 11.25h.002z" fill="#FFC556"/><path d="M35.002 11.285a17.64 17.64 0 00-.463.04 319.426 319.426 0 0015.43 23.641c.074-.138.147-.275.219-.413l-.007-.007a320 320 0 01-15.177-23.26" fill="#FFC556"/><path fill-rule="evenodd" clip-rule="evenodd" d="M33.504 11.466a351.506 351.506 0 0016.231 23.907c.078-.13.154-.261.227-.395a350.404 350.404 0 01-16.01-23.58c-.15.02-.3.043-.45.067" fill="#FFC556"/><path fill-rule="evenodd" clip-rule="evenodd" d="M32.474 11.671A387.724 387.724 0 0049.49 35.765c.082-.127.16-.254.237-.381A387.387 387.387 0 0132.91 11.576c-.146.03-.292.061-.437.1" fill="#FFC556"/><path fill-rule="evenodd" clip-rule="evenodd" d="M31.46 11.945c4.704 6.883 10.765 15.33 17.785 24.2.082-.123.163-.247.242-.37a434.484 434.484 0 01-17.604-23.952c-.142.04-.282.08-.422.122" fill="#FFC556"/><path fill-rule="evenodd" clip-rule="evenodd" d="M30.871 12.14c-.136.048-.273.1-.408.15l.251.349c4.863 6.758 11.104 15.083 18.277 23.866l.248-.357a497.266 497.266 0 01-18.183-23.752l-.185-.256z" fill="#FFC556"/><path fill-rule="evenodd" clip-rule="evenodd" d="M29.882 12.525c-.13.056-.261.114-.39.174l.5.67a585.276 585.276 0 0018.734 23.495c.086-.117.172-.23.255-.347a586.362 586.362 0 01-19.099-23.992z" fill="#FFC556"/><path fill-rule="evenodd" clip-rule="evenodd" d="M28.558 13.17a718.713 718.713 0 0019.907 24.033c.09-.111.177-.224.262-.337a714.789 714.789 0 01-19.791-23.894c-.127.064-.252.129-.378.2" fill="#FFC556"/><path d="M27.64 13.71a918.528 918.528 0 0020.551 23.828c.09-.108.18-.217.27-.328a920.193 920.193 0 01-20.458-23.722c-.121.071-.24.145-.359.221h-.004zm-.877.601a1280.442 1280.442 0 0021.148 23.55l.273-.317a1297.219 1297.219 0 01-21.081-23.476c-.116.08-.23.16-.343.243h.003zm-.845.664a2082.36 2082.36 0 0021.697 23.2c.1-.1.191-.2.284-.308a2131 2131 0 01-21.66-23.159 9.08 9.08 0 00-.322.268l.001-.001zm-.798.72a6714.637 6714.637 0 0022.202 22.79c.1-.1.196-.2.291-.301a6355.668 6355.668 0 01-22.181-22.779c-.1.094-.206.19-.306.288l-.006.001zm-.739.77a6132.308 6132.308 0 0122.636 22.32c.1-.1.2-.195.301-.295a6668.098 6668.098 0 00-22.651-22.334l-.286.308zm-.694.818a2129.92 2129.92 0 0123.017 21.792c.1-.093.207-.188.308-.284a2135.498 2135.498 0 00-23.06-21.834c-.09.107-.178.215-.265.326zm-.635.863a1290.111 1290.111 0 0123.332 21.212l.315-.277A1286.377 1286.377 0 0023.294 17.8c-.082.113-.163.229-.243.345v.001zm-.578.901A907.434 907.434 0 0146.05 39.635l.325-.27a917.557 917.557 0 00-23.682-20.68c-.075.122-.15.241-.22.362z" fill="#FFC556"/><path fill-rule="evenodd" clip-rule="evenodd" d="M21.963 19.988a715.769 715.769 0 0123.748 19.916 9.96 9.96 0 00.335-.263A711.154 711.154 0 0022.16 19.608l-.2.38" fill="#FFC556"/><path d="M21.692 20.55c-.06.13-.117.262-.174.395l.585.447a582.798 582.798 0 0123.258 18.773c.116-.084.23-.17.345-.257A581.72 581.72 0 0021.69 20.554l.003-.004zm-.404.983c-.051.135-.1.272-.148.409l.256.185c8.05 5.861 15.92 11.96 23.607 18.296.118-.08.238-.164.356-.25A497.977 497.977 0 0021.633 21.78l-.349-.255" fill="#FFC556"/><path fill-rule="evenodd" clip-rule="evenodd" d="M20.821 22.953c6.782 4.7 15.083 10.73 23.804 17.716l.364-.243a433.638 433.638 0 00-24.044-17.895c-.043.14-.084.28-.121.422" fill="#FFC556"/><path fill-rule="evenodd" clip-rule="evenodd" d="M20.574 23.985a384.662 384.662 0 0123.66 16.92c.129-.076.255-.155.381-.235A385.774 385.774 0 0020.67 23.546c-.035.146-.067.292-.1.44" fill="#FFC556"/><path fill-rule="evenodd" clip-rule="evenodd" d="M20.396 25.035a349.53 349.53 0 0123.435 16.111c.131-.074.264-.15.393-.228a346.543 346.543 0 00-23.76-16.33c-.025.149-.048.3-.07.45" fill="#FFC556"/><path fill-rule="evenodd" clip-rule="evenodd" d="M20.287 26.09a318.028 318.028 0 0123.116 15.275l.008.007c.137-.073.273-.145.408-.222a318.157 318.157 0 00-23.492-15.523c-.017.156-.03.31-.04.465" fill="#FFC556"/><path fill-rule="evenodd" clip-rule="evenodd" d="M20.259 26.679c0 .159-.008.318-.009.476A293.49 293.49 0 0142.956 41.58l.017.013c.148-.07.293-.145.437-.22l-.007-.006C36.223 36.3 28.45 31.372 20.26 26.678" fill="#FFC556"/><path d="M20.26 27.73c0 .165.014.328.025.49a271.509 271.509 0 0122.219 13.576l.014.008c.153-.07.3-.139.457-.213l-.017-.01c-7.039-4.803-14.655-9.452-22.697-13.852z" fill="#FFC556"/><path d="M20.327 28.783c.017.169.036.336.06.502a254.013 254.013 0 0121.636 12.711l.015.008c.16-.063.32-.131.48-.2l-.015-.01a254.384 254.384 0 00-22.174-13.01" fill="#FFC556"/><path fill-rule="evenodd" clip-rule="evenodd" d="M20.465 29.835c.03.173.061.345.1.516a241.837 241.837 0 0120.967 11.85c.167-.06.338-.124.501-.195l-.014-.008a239.553 239.553 0 00-21.56-12.163" fill="#FFC556"/><path d="M20.805 31.414a227.422 227.422 0 0120.187 10.974c.178-.059.358-.12.535-.187a226.94 226.94 0 00-20.859-11.32c.043.178.086.354.135.53" fill="#FFC556"/><path fill-rule="evenodd" clip-rule="evenodd" d="M21.133 32.473a216.935 216.935 0 0119.288 10.09c.191-.056.381-.114.571-.174a216.013 216.013 0 00-20.037-10.463c.056.183.114.364.178.545" fill="#FFC556"/><path fill-rule="evenodd" clip-rule="evenodd" d="M21.542 33.526a207.313 207.313 0 0118.271 9.195c.2-.049.401-.1.607-.16a206.057 206.057 0 00-19.105-9.601c.07.192.147.378.227.566z" fill="#FFC556"/><path fill-rule="evenodd" clip-rule="evenodd" d="M22.04 34.578a199.455 199.455 0 0117.116 8.287c.219-.04.438-.09.654-.142a198.113 198.113 0 00-18.05-8.724c.092.2.187.39.286.582" fill="#FFC556"/><path fill-rule="evenodd" clip-rule="evenodd" d="M22.638 35.633c5.055 2.091 10.401 4.532 15.787 7.358.239-.035.477-.076.714-.122a189.776 189.776 0 00-16.859-7.845c.116.2.233.408.358.602" fill="#FFC556"/><path fill-rule="evenodd" clip-rule="evenodd" d="M23.354 36.691a183.977 183.977 0 0114.263 6.397c.264-.024.527-.057.79-.095a183.785 183.785 0 00-15.496-6.938c.143.215.292.427.444.636" fill="#FFC556"/><path fill-rule="evenodd" clip-rule="evenodd" d="M24.223 37.769a179.06 179.06 0 0112.464 5.382c.3-.012.6-.03.903-.058a177.288 177.288 0 00-13.925-6c.18.23.366.454.562.676" fill="#FFC556"/><path fill-rule="evenodd" clip-rule="evenodd" d="M24.893 38.489c.132.134.268.264.402.392a172.016 172.016 0 0110.275 4.272c.354.012.708.012 1.061 0a172.917 172.917 0 00-12.074-5.014c.109.117.22.233.334.347" fill="#FFC556"/><path d="M26.741 40.085c2.48.925 4.938 1.909 7.373 2.951.458.057.92.096 1.38.112a165.263 165.263 0 00-9.808-3.91c.342.3.692.585 1.055.851v-.004zm3.051 1.766l1.27.486c.94.317 1.908.544 2.89.678a163.86 163.86 0 00-6.718-2.58c.807.55 1.664 1.023 2.56 1.414" fill="#FFC556"/></svg><svg fill="none" viewBox="0 0 18 13" id="check" xmlns="http://www.w3.org/2000/svg"><path d="M17 1L6 12 1 7" stroke="#3794D0" stroke-width="2" stroke-linecap="round" stroke-linejoin="round"/></svg><svg fill="none" viewBox="0 0 32 32" id="clock" xmlns="http://www.w3.org/2000/svg"><path d="M16 29.333c7.363 0 13.333-5.97 13.333-13.333 0-7.364-5.97-13.333-13.334-13.333C8.636 2.667 2.666 8.637 2.666 16c0 7.364 5.97 13.333 13.333 13.333z" stroke="#3794D0" stroke-width="2" stroke-linecap="round" stroke-linejoin="round"/><path d="M16 8v8l5.333 2.667" stroke="#3794D0" stroke-width="2" stroke-linecap="round" stroke-linejoin="round"/></svg><svg fill="none" viewBox="0 0 24 24" id="close-modal" xmlns="http://www.w3.org/2000/svg"><path d="M12 22c5.523 0 10-4.477 10-10S17.523 2 12 2 2 6.477 2 12s4.477 10 10 10zM15 9l-6 6M9 9l6 6" stroke="#fff" stroke-width="2" stroke-linecap="round" stroke-linejoin="round"/></svg><svg fill="none" viewBox="0 0 32 32" id="dislike" xmlns="http://www.w3.org/2000/svg"><path d="M22.667 2.667h3.56a3.08 3.08 0 013.106 2.666v9.334a3.08 3.08 0 01-3.106 2.666h-3.56M13.333 20v5.333a4 4 0 004 4l5.334-12V2.667H7.627A2.667 2.667 0 004.96 4.933l-1.84 12A2.667 2.667 0 005.787 20h7.546z" stroke="#3794D0" stroke-width="2" stroke-linecap="round" stroke-linejoin="round"/></svg><svg fill="none" viewBox="0 0 32 32" id="dollar" xmlns="http://www.w3.org/2000/svg"><path d="M16 1.333v29.334M22.667 6.667h-10a4.667 4.667 0 100 9.333h6.666a4.667 4.667 0 110 9.333H8" stroke="#3794D0" stroke-width="2" stroke-linecap="round" stroke-linejoin="round"/></svg><svg fill="none" viewBox="0 0 24 24" id="download" xmlns="http://www.w3.org/2000/svg"><path d="M21 15v4a2 2 0 01-2 2H5a2 2 0 01-2-2v-4M7 10l5 5 5-5M12 15V3" stroke="#fff" stroke-width="2" stroke-linecap="round" stroke-linejoin="round"/></svg><svg fill="none" viewBox="0 0 32 32" id="fast" xmlns="http://www.w3.org/2000/svg"><path d="M17.333 25.333l12-9.333-12-9.333v18.666zM2.667 25.333l12-9.333-12-9.333v18.666z" stroke="#3794D0" stroke-width="2" stroke-linecap="round" stroke-linejoin="round"/></svg><svg fill="none" viewBox="0 0 24 29" id="fresh" xmlns="http://www.w3.org/2000/svg"><path d="M5.207 1.8c-.577 0-1.106 0-1.536.058-.474.064-.975.213-1.387.625-.413.413-.562.913-.626 1.387-.058.43-.058.96-.058 1.537V26.8a1 1 0 002 0v-8.333h15.264a3.403 3.403 0 001.928-6.207l-.375-.258a2.268 2.268 0 010-3.737l.375-.258A3.403 3.403 0 0018.864 1.8H5.207z" stroke="#3794D0" stroke-width="2"/></svg><svg fill="none" viewBox="0 0 32 32" id="git-merge" xmlns="http://www.w3.org/2000/svg"><path d="M24 28a4 4 0 100-8 4 4 0 000 8zM8 12a4 4 0 100-8 4 4 0 000 8z" stroke="#3794D0" stroke-width="2" stroke-linecap="round" stroke-linejoin="round"/><path d="M8 28V12a12 12 0 0012 12" stroke="#3794D0" stroke-width="2" stroke-linecap="round" stroke-linejoin="round"/></svg><svg fill="none" viewBox="0 0 32 32" id="git-pull" xmlns="http://www.w3.org/2000/svg"><path d="M24 28a4 4 0 100-8 4 4 0 000 8zM8 12a4 4 0 100-8 4 4 0 000 8zM17.333 8h4A2.667 2.667 0 0124 10.667V20M8 12v16" stroke="#3794D0" stroke-width="2" stroke-linecap="round" stroke-linejoin="round"/></svg><svg fill="none" viewBox="0 0 32 32" id="globe" xmlns="http://www.w3.org/2000/svg"><path d="M16 29.333c7.363 0 13.333-5.97 13.333-13.333 0-7.364-5.97-13.333-13.334-13.333C8.636 2.667 2.666 8.637 2.666 16c0 7.364 5.97 13.333 13.333 13.333zM2.666 16h26.667" stroke="#3794D0" stroke-width="2" stroke-linecap="round" stroke-linejoin="round"/><path d="M16.333 3a20.4 20.4 0 015.334 13.333 20.4 20.4 0 01-5.334 13.334A20.4 20.4 0 0111 16.333 20.4 20.4 0 0116.333 3v0z" stroke="#3794D0" stroke-width="2" stroke-linecap="round" stroke-linejoin="round"/></svg><svg fill="none" viewBox="0 0 32 32" id="grow" xmlns="http://www.w3.org/2000/svg"><path d="M30.667 8L18 20.667 11.334 14l-10 10" stroke="#3794D0" stroke-width="2" stroke-linecap="round" stroke-linejoin="round"/><path d="M22.666 8h8v8" stroke="#3794D0" stroke-width="2" stroke-linecap="round" stroke-linejoin="round"/></svg><svg fill="none" viewBox="0 0 32 24" id="just" xmlns="http://www.w3.org/2000/svg"><path clip-rule="evenodd" d="M8.653 1.667c-4.472 0-7.907 3.96-7.275 8.387l.308 2.155 1.942 6.796a4.589 4.589 0 008.272 1.22l.5-.776c1.684-2.62 5.515-2.62 7.2 0l.305.475a5.246 5.246 0 009.605-2.094l1.111-7.776c.633-4.427-2.802-8.387-7.274-8.387a7.348 7.348 0 00-2.985.633l-.707.315c-1.368.607-1.921.848-2.479.966a5.667 5.667 0 01-2.353 0c-.558-.118-1.111-.359-2.478-.966l-.708-.315a7.348 7.348 0 00-2.984-.633z" stroke="#3794D0" stroke-width="2"/><path fill-rule="evenodd" clip-rule="evenodd" d="M9.333 7a1 1 0 011 1v1.667H12a1 1 0 010 2h-1.667v1.666a1 1 0 11-2 0v-1.666H6.666a1 1 0 110-2h1.667V8a1 1 0 011-1zm13.333 2.333a1.333 1.333 0 100-2.666 1.333 1.333 0 000 2.666zM20 12a1.333 1.333 0 100-2.667A1.333 1.333 0 0020 12zm6.666-1.333a1.333 1.333 0 11-2.666 0 1.333 1.333 0 012.666 0zm-4 4a1.333 1.333 0 100-2.667 1.333 1.333 0 000 2.667z" fill="#3794D0"/></svg><svg fill="none" viewBox="0 0 75 8" id="line-between" xmlns="http://www.w3.org/2000/svg"><circle cx="4" cy="4" r="4" fill="#3794D0"/><circle cx="71" cy="4" r="4" fill="#3794D0"/><path stroke="#3794D0" stroke-opacity=".3" d="M5.5 3.5h66v1h-66z"/></svg><svg fill="none" viewBox="0 0 24 24" id="linkedin" xmlns="http://www.w3.org/2000/svg"><g opacity=".8"><path d="M16 8a6 6 0 016 6v7h-4v-7a2 2 0 00-4 0v7h-4v-7a6 6 0 016-6zM6 9H2v12h4V9zM4 6a2 2 0 100-4 2 2 0 000 4z"/></g></svg><svg fill="none" viewBox="0 0 32 32" id="mail" xmlns="http://www.w3.org/2000/svg"><path d="M5.335 5.333h21.333c1.467 0 2.667 1.2 2.667 2.667v16c0 1.466-1.2 2.666-2.667 2.666H5.335A2.674 2.674 0 012.668 24V8c0-1.467 1.2-2.667 2.667-2.667z" stroke="#3794D0" stroke-width="2" stroke-linecap="round" stroke-linejoin="round"/><path d="M29.335 8L16 17.333 2.668 8" stroke="#3794D0" stroke-width="2" stroke-linecap="round" stroke-linejoin="round"/></svg><svg fill="none" viewBox="0 0 24 24" id="nextpage" xmlns="http://www.w3.org/2000/svg"><path stroke="#fff" stroke-width="3" d="M1.5 1.5h21v21h-21z"/><path stroke="#fff" stroke-width="3.75" d="M1.326 1.674l21 21"/></svg><svg fill="none" viewBox="0 0 32 32" id="obser" xmlns="http://www.w3.org/2000/svg"><path d="M1.333 16S6.667 5.333 16 5.333 30.667 16 30.667 16 25.333 26.667 16 26.667 1.333 16 1.333 16z" stroke="#3794D0" stroke-width="2" stroke-linecap="round" stroke-linejoin="round"/><path d="M16 20a4 4 0 100-8 4 4 0 000 8z" stroke="#3794D0" stroke-width="2" stroke-linecap="round" stroke-linejoin="round"/></svg><svg fill="none" viewBox="0 0 32 32" id="package" xmlns="http://www.w3.org/2000/svg"><path d="M22 12.533l-12-6.92M28 21.333V10.667a2.667 2.667 0 00-1.333-2.307l-9.334-5.333a2.667 2.667 0 00-2.666 0L5.333 8.36A2.667 2.667 0 004 10.667v10.666a2.666 2.666 0 001.333 2.307l9.334 5.333a2.667 2.667 0 002.666 0l9.334-5.333A2.667 2.667 0 0028 21.333z" stroke="#3794D0" stroke-width="2" stroke-linecap="round" stroke-linejoin="round"/><path d="M4.36 9.28L16 16.013 27.64 9.28M16 29.44V16" stroke="#3794D0" stroke-width="2" stroke-linecap="round" stroke-linejoin="round"/></svg><svg fill="none" viewBox="0 0 32 32" id="pie-chart" xmlns="http://www.w3.org/2000/svg"><path d="M28.28 21.187A13.334 13.334 0 1110.667 3.773M29.333 16A13.333 13.333 0 0016 2.667V16h13.333z" stroke="#3794D0" stroke-width="2" stroke-linecap="round" stroke-linejoin="round"/></svg><svg fill="none" viewBox="0 0 90 21" id="pie-line" xmlns="http://www.w3.org/2000/svg"><path opacity=".15" d="M1 20.5L17.279 5.701A20 20 0 0130.732.5H90" stroke="#fff"/></svg><svg fill="none" viewBox="0 0 32 33" id="pin" xmlns="http://www.w3.org/2000/svg"><g clip-path="url(#bhclip0_634_8368)" stroke="#3794D0" stroke-width="2" stroke-linecap="round" stroke-linejoin="round"><path d="M28 13.833c0 9.333-12 17.333-12 17.333s-12-8-12-17.333a12 12 0 1124 0z"/><path d="M16 17.833a4 4 0 100-8 4 4 0 000 8z"/></g><defs><clipPath id="bhclip0_634_8368"><path fill="#fff" transform="translate(0 .5)" d="M0 0h32v32H0z"/></clipPath></defs></svg><svg viewBox="0 0 24 24" id="play-circle" xmlns="http://www.w3.org/2000/svg"><path d="M12 22c5.523 0 10-4.477 10-10S17.523 2 12 2 2 6.477 2 12s4.477 10 10 10z"/><path d="M10 8l6 4-6 4V8z"/></svg><svg fill="none" viewBox="0 0 32 32" id="repeat" xmlns="http://www.w3.org/2000/svg"><path d="M22.666 1.333l5.333 5.334L22.666 12" stroke="#3794D0" stroke-width="2" stroke-linecap="round" stroke-linejoin="round"/><path d="M4 14.667V12a5.333 5.333 0 015.333-5.333H28M9.333 30.667L4 25.333 9.333 20" stroke="#3794D0" stroke-width="2" stroke-linecap="round" stroke-linejoin="round"/><path d="M28 17.333V20a5.333 5.333 0 01-5.333 5.333H4" stroke="#3794D0" stroke-width="2" stroke-linecap="round" stroke-linejoin="round"/></svg><svg fill="none" viewBox="0 0 32 32" id="run-set" xmlns="http://www.w3.org/2000/svg"><path d="M5.334 28v-9.333M5.334 13.333V4M16 28V16M16 10.667V4M26.666 28v-6.667M26.666 16V4M1.334 18.667h8M12 10.667h8M22.666 21.333h8" stroke="#3794D0" stroke-width="2" stroke-linecap="round" stroke-linejoin="round"/></svg><svg fill="none" viewBox="0 0 24 30" id="scenarios" xmlns="http://www.w3.org/2000/svg"><path d="M17.333 4.333H20A2.667 2.667 0 0122.667 7v18.667A2.667 2.667 0 0120 28.333H4a2.667 2.667 0 01-2.667-2.666V7A2.667 2.667 0 014 4.333h2.667" stroke="#3794D0" stroke-width="2" stroke-linecap="round" stroke-linejoin="round"/><path d="M16 1.667H8c-.736 0-1.333.597-1.333 1.333v2.667C6.667 6.403 7.264 7 8 7h8c.736 0 1.333-.597 1.333-1.333V3c0-.736-.596-1.333-1.333-1.333z" stroke="#3794D0" stroke-width="2" stroke-linecap="round" stroke-linejoin="round"/></svg><svg fill="none" viewBox="0 0 32 32" id="search" xmlns="http://www.w3.org/2000/svg"><path d="M14.667 25.333c5.89 0 10.666-4.775 10.666-10.666S20.558 4 14.667 4 4 8.776 4 14.667c0 5.89 4.776 10.666 10.667 10.666zM28 28l-5.8-5.8" stroke="#3794D0" stroke-width="2" stroke-linecap="round" stroke-linejoin="round"/></svg><svg fill="none" viewBox="0 0 23 28" id="secure" xmlns="http://www.w3.org/2000/svg"><mask id="bna" style="mask-type:alpha" maskUnits="userSpaceOnUse" x="0" y="0" width="23" height="28"><path fill-rule="evenodd" clip-rule="evenodd" d="M.334.667h22.622v27.141H.334V.668z" fill="#fff"/></mask><g mask="url(#bna)"><path fill-rule="evenodd" clip-rule="evenodd" d="M11.645 2.667c-1.13 0-8.264 2.512-9.087 3.198-.242.244-.252.668-.2 3.507.024 1.368.058 3.227.058 5.8 0 6.935 7.629 10.013 9.227 10.58 1.598-.57 9.231-3.665 9.231-10.58 0-2.576.034-4.436.059-5.804.05-2.836.041-3.26-.216-3.516-.807-.673-7.941-3.185-9.072-3.185m0 25.141a.976.976 0 01-.29-.043C10.91 27.631.415 24.348.415 15.172c0-2.556-.033-4.405-.057-5.763-.061-3.39-.074-4.097.801-4.972C2.207 3.388 10.133.667 11.646.667c1.51 0 9.437 2.721 10.486 3.77.875.875.862 1.582.8 4.968-.024 1.358-.057 3.207-.057 5.767 0 9.176-10.493 12.459-10.94 12.593a.976.976 0 01-.29.043" fill="#3794D0"/></g><path fill-rule="evenodd" clip-rule="evenodd" d="M10.703 17.36c-.265 0-.52-.106-.708-.294l-2.523-2.525a1.002 1.002 0 011.416-1.415l1.815 1.817 4.49-4.49a.999.999 0 111.414 1.414l-5.197 5.199a.996.996 0 01-.707.293" fill="#3794D0"/></svg><svg fill="none" viewBox="0 0 18 10" id="select" xmlns="http://www.w3.org/2000/svg"><path d="M1 1l8 8 8-8" stroke="#fff" stroke-width="2" stroke-linecap="round" stroke-linejoin="round"/></svg><svg fill="none" viewBox="0 0 32 32" id="server" xmlns="http://www.w3.org/2000/svg"><path d="M26.666 2.667H5.333a2.667 2.667 0 00-2.667 2.666v5.334a2.667 2.667 0 002.667 2.666h21.333a2.667 2.667 0 002.667-2.666V5.333a2.667 2.667 0 00-2.667-2.666zM26.666 18.667H5.333a2.667 2.667 0 00-2.667 2.666v5.334a2.667 2.667 0 002.667 2.666h21.333a2.667 2.667 0 002.667-2.666v-5.334a2.667 2.667 0 00-2.667-2.666zM8 8h.013M8 24h.013" stroke="#3794D0" stroke-width="2" stroke-linecap="round" stroke-linejoin="round"/></svg><svg fill="none" viewBox="0 0 24 25" id="share-icon" xmlns="http://www.w3.org/2000/svg"><g opacity=".8" stroke="#3794D0" stroke-width="2" stroke-linecap="round" stroke-linejoin="round"><path d="M18 8.5a3 3 0 100-6 3 3 0 000 6zM6 15.5a3 3 0 100-6 3 3 0 000 6zM18 22.5a3 3 0 100-6 3 3 0 000 6zM8.59 14.01l6.83 3.98M15.41 7.01l-6.82 3.98"/></g></svg><svg fill="none" viewBox="0 0 24 30" id="shield" xmlns="http://www.w3.org/2000/svg"><path d="M12 28.333S22.668 23 22.668 15V5.667l-10.666-4-10.667 4V15c0 8 10.667 13.333 10.667 13.333z" stroke="#3794D0" stroke-width="2" stroke-linecap="round" stroke-linejoin="round"/></svg><svg fill="none" viewBox="0 0 32 32" id="shield-done" xmlns="http://www.w3.org/2000/svg"><mask id="bsa" style="mask-type:alpha" maskUnits="userSpaceOnUse" x="5" y="2" width="23" height="28"><path fill-rule="evenodd" clip-rule="evenodd" d="M5.333 2.667h22.623v27.14H5.334V2.668z" fill="#fff"/></mask><g mask="url(#bsa)"><path fill-rule="evenodd" clip-rule="evenodd" d="M16.645 4.667c-1.13 0-8.264 2.511-9.087 3.198-.242.244-.252.668-.2 3.507.024 1.368.058 3.226.058 5.8 0 6.934 7.629 10.013 9.228 10.58 1.597-.57 9.23-3.665 9.23-10.58 0-2.576.034-4.436.059-5.804.05-2.836.041-3.26-.216-3.516-.807-.674-7.941-3.186-9.072-3.186zm0 25.14a.976.976 0 01-.29-.042c-.446-.134-10.94-3.417-10.94-12.593 0-2.556-.033-4.405-.057-5.763-.061-3.39-.075-4.097.801-4.972 1.047-1.05 8.974-3.77 10.486-3.77 1.51 0 9.437 2.72 10.486 3.77.875.875.862 1.581.8 4.968-.024 1.357-.057 3.207-.057 5.767 0 9.176-10.493 12.459-10.94 12.593a.976.976 0 01-.29.043z" fill="#3794D0"/></g><path d="M19.5 13L14 18.5M14 13l5.5 5.5" stroke="#3794D0" stroke-width="2" stroke-linecap="round" stroke-linejoin="round"/></svg><svg fill="none" viewBox="0 0 32 32" id="shield-off" xmlns="http://www.w3.org/2000/svg"><path d="M26.253 18.667A9.198 9.198 0 0026.666 16V6.667L16 2.667 11.787 4.24M6.306 6.307l-.973.36V16C5.333 24 16 29.333 16 29.333a27.053 27.053 0 007.493-5.84M1.333 1.333l29.333 29.334" stroke="#3794D0" stroke-width="2" stroke-linecap="round" stroke-linejoin="round"/></svg><svg fill="none" viewBox="0 0 32 32" id="shuffle" xmlns="http://www.w3.org/2000/svg"><path d="M21.334 4h6.667v6.667M5.334 26.667L28.001 4M28 21.333V28h-6.666M20 20l8 8M5.334 5.333L12.001 12" stroke="#3794D0" stroke-width="2" stroke-linecap="round" stroke-linejoin="round"/></svg><svg fill="none" viewBox="0 0 29 29" id="skills" xmlns="http://www.w3.org/2000/svg"><path fill-rule="evenodd" clip-rule="evenodd" d="M7.622 19.337a1 1 0 01-.792-1.61l3.99-5.186a1 1 0 011.411-.176l3.76 2.954 3.29-4.245a.995.995 0 011.402-.178.999.999 0 01.179 1.402l-3.907 5.04a.994.994 0 01-.667.38.988.988 0 01-.74-.205l-3.758-2.952-3.375 4.386a1 1 0 01-.793.39" fill="#3794D0"/><mask id="bva" style="mask-type:alpha" maskUnits="userSpaceOnUse" x="21" y="0" width="8" height="8"><path fill-rule="evenodd" clip-rule="evenodd" d="M21.06.667h7.126v7.126H21.06V.667z" fill="#fff"/></mask><g mask="url(#bva)"><path fill-rule="evenodd" clip-rule="evenodd" d="M24.623 2.667a1.564 1.564 0 000 3.126 1.564 1.564 0 000-3.127m0 5.127A3.568 3.568 0 0121.06 4.23 3.566 3.566 0 0124.623.667a3.566 3.566 0 013.563 3.562 3.567 3.567 0 01-3.563 3.564" fill="#3794D0"/></g><mask id="bvb" style="mask-type:alpha" maskUnits="userSpaceOnUse" x="0" y="1" width="28" height="28"><path fill-rule="evenodd" clip-rule="evenodd" d="M.667 1.79h26.482v26.48H.667V1.79z" fill="#fff"/></mask><g mask="url(#bvb)"><path fill-rule="evenodd" clip-rule="evenodd" d="M19.644 28.27H8.172c-4.49 0-7.505-3.153-7.505-7.846V9.648c0-4.7 3.016-7.859 7.505-7.859h9.69a1 1 0 010 2h-9.69c-3.344 0-5.506 2.299-5.506 5.859v10.776c0 3.607 2.11 5.847 5.506 5.847h11.472c3.344 0 5.505-2.295 5.505-5.847v-9.385a1 1 0 012 0v9.385c0 4.693-3.016 7.847-7.505 7.847" fill="#3794D0"/></g></svg><svg fill="none" viewBox="0 0 32 32" id="sniper" xmlns="http://www.w3.org/2000/svg"><path d="M16 29.333c7.364 0 13.334-5.97 13.334-13.333 0-7.364-5.97-13.333-13.334-13.333C8.637 2.667 2.667 8.637 2.667 16c0 7.364 5.97 13.333 13.333 13.333zM29.333 16H24M8 16H2.667M16 8V2.667M16 29.333V24" stroke="#3794D0" stroke-width="2" stroke-linecap="round" stroke-linejoin="round"/></svg><svg fill="none" viewBox="0 0 32 32" id="tool" xmlns="http://www.w3.org/2000/svg"><path d="M19.6 8.4a1.333 1.333 0 000 1.867l2.133 2.133a1.334 1.334 0 001.867 0l5.026-5.027A8 8 0 0118.04 17.96l-9.214 9.213a2.829 2.829 0 01-4-4l9.214-9.213A8 8 0 0124.627 3.373l-5.014 5.014-.013.013z" stroke="#3794D0" stroke-width="2" stroke-linecap="round" stroke-linejoin="round"/></svg><svg fill="none" viewBox="0 0 24 24" id="twitter" xmlns="http://www.w3.org/2000/svg"><path d="M23 3a10.9 10.9 0 01-3.14 1.53 4.48 4.48 0 00-7.86 3v1A10.66 10.66 0 013 4s-4 9 5 13a11.64 11.64 0 01-7 2c9 5 20 0 20-11.5-.001-.279-.028-.556-.08-.83A7.72 7.72 0 0023 3z" opacity=".8"/></svg><svg fill="none" viewBox="0 0 32 32" id="unlock" xmlns="http://www.w3.org/2000/svg"><path d="M25.333 14.667H6.667A2.667 2.667 0 004 17.333v9.334a2.667 2.667 0 002.667 2.666h18.666A2.667 2.667 0 0028 26.667v-9.334a2.667 2.667 0 00-2.667-2.666zM9.334 14.667V9.333A6.667 6.667 0 0122.534 8" stroke="#3794D0" stroke-width="2" stroke-linecap="round" stroke-linejoin="round"/></svg><svg fill="none" viewBox="0 0 32 33" id="user" xmlns="http://www.w3.org/2000/svg"><path d="M26.665 28.5v-2.667a5.333 5.333 0 00-5.333-5.333H10.665a5.333 5.333 0 00-5.333 5.333V28.5M16.001 15.167a5.333 5.333 0 100-10.667 5.333 5.333 0 000 10.667z" stroke="#3794D0" stroke-width="2" stroke-linecap="round" stroke-linejoin="round"/></svg><svg fill="none" viewBox="0 0 32 32" id="validate" xmlns="http://www.w3.org/2000/svg"><path d="M29.333 14.773V16a13.333 13.333 0 11-7.906-12.187" stroke="#3794D0" stroke-width="2" stroke-linecap="round" stroke-linejoin="round"/><path d="M29.333 5.333L16 18.68l-4-4" stroke="#3794D0" stroke-width="2" stroke-linecap="round" stroke-linejoin="round"/></svg><svg fill="none" viewBox="0 0 32 32" id="x-circle" xmlns="http://www.w3.org/2000/svg"><path d="M16 29.333c7.364 0 13.334-5.97 13.334-13.333 0-7.364-5.97-13.333-13.334-13.333C8.637 2.667 2.667 8.637 2.667 16c0 7.364 5.97 13.333 13.333 13.333zM20 12l-8 8M12 12l8 8" stroke="#3794D0" stroke-width="2" stroke-linecap="round" stroke-linejoin="round"/></svg><svg fill="none" viewBox="0 0 32 32" id="zap-off" xmlns="http://www.w3.org/2000/svg"><path d="M16.547 9l.787-6.333-3.24 3.893M24.76 17.213l3.24-3.88h-7.12M10.667 10.667l-6.667 8h12l-1.333 10.666 6.666-8M1.334 1.333l29.333 29.334" stroke="#3794D0" stroke-width="2" stroke-linecap="round" stroke-linejoin="round"/></svg></svg>