<svg width="186" height="46" viewBox="0 0 186 46" fill="none" xmlns="http://www.w3.org/2000/svg">
<path d="M185.931 35.7664L181.709 40.4175C180.039 39.0606 178.02 37.5871 176.887 36.8787V36.7763C177.332 36.3724 177.382 35.9485 177.382 34.9557V18.7295L173.059 15.8478C172.698 16.1152 172.234 16.468 172.066 16.6074V34.6542C172.066 35.8745 172.463 36.4236 173.308 36.7279V36.8275C172.156 37.9256 170.545 39.6295 169.88 40.4175C168.674 39.3678 166.761 37.917 165.755 37.2315V37.1319C166.499 36.6767 166.748 36.0111 166.748 34.8049V18.0724L165.654 17.1109C165.469 16.9488 165.293 16.8606 165.109 16.8577C164.885 16.8542 164.647 16.9715 164.362 17.2645L163.615 18.0212L163.168 17.6173L167.791 12.5622L172.066 15.7966L176.289 12.511C178.082 13.831 181.678 15.9133 183.546 16.8577V16.9601C182.95 17.3641 182.701 17.97 182.701 19.0311V35.2601L183.744 35.9684C183.982 36.1277 184.189 36.2216 184.39 36.2216C184.639 36.2216 184.877 36.1135 185.137 35.8176L185.534 35.3625L185.931 35.7664Z" fill="white"/>
<path d="M144.729 35.3625L140.058 40.4687C138.344 39.1886 136.183 37.6866 134.988 36.8787V36.8275C135.783 36.2728 135.783 35.8574 135.783 34.9557V19.1334L131.708 16.2518L130.464 17.364V35.1093C130.464 35.7977 130.864 36.3211 131.658 36.6767V36.7763L128.229 40.4175C126.94 39.3564 125.139 37.9682 124.054 37.2314V37.1319C124.899 36.4747 125.148 36.0594 125.148 35.1605V18.9827L120.875 15.9986L119.731 16.9601V34.9073C119.731 35.7152 120.178 36.3723 121.023 36.6767V36.7763L117.544 40.4175C116.434 39.5328 114.745 38.2299 113.419 37.2826V37.1802C114.202 36.6881 114.462 35.8973 114.462 34.9073V17.7168L113.517 17.0113C113.305 16.8492 113.106 16.8036 112.921 16.8065C112.653 16.8179 112.41 16.9601 112.175 17.2133L111.33 18.1236L110.883 17.6656L115.556 12.5622L119.731 16.101L124.105 12.5622C125.933 14.0045 128.481 15.8592 130.019 16.8605L134.689 12.5622C136.426 13.9333 139.947 16.266 141.946 17.5148V17.6172C141.155 18.1719 141.101 18.7835 141.101 19.8418V35.1605L142.094 35.8176C142.41 36.0253 142.634 36.1277 142.841 36.1192C143.079 36.1105 143.302 35.9542 143.635 35.6156L144.281 34.9557L144.729 35.3625Z" fill="white"/>
<path d="M75.8497 35.2089L71.2272 40.4175C69.2473 39.0577 66.2662 37.2286 64.4206 36.2216V36.1192C64.8344 35.7778 65.0162 35.3511 65.0162 34.5034V16.4026H62.0352L63.0279 14.5336H65.0665V11.1455C65.0665 10.386 65.0496 9.78009 64.4681 9.32494V9.22537C67.1052 8.9722 68.481 5.83734 71.3279 5.78613L71.4257 5.98811C70.7406 6.44326 70.2848 7.45598 70.2848 9.37615V14.3828H74.9073L73.7608 16.8093C73.4476 16.5562 73.0756 16.4026 72.4213 16.4026H70.2848V34.3014L72.8687 35.664C73.3189 35.903 73.6406 36.0168 73.9118 36.0196C74.2278 36.0231 74.4795 35.8717 74.8067 35.5132L75.4527 34.8049L75.8497 35.2089Z" fill="white"/>
<path d="M42.5986 35.2089L37.9761 40.4175C35.9962 39.0577 33.0151 37.2286 31.1666 36.2216V36.1192C31.5805 35.7778 31.7623 35.3511 31.7623 34.5034V16.4026H28.7812L29.7768 14.5336H31.8126V11.1455C31.8126 10.386 31.7957 9.78009 31.217 9.32494V9.22537C33.8541 8.9722 35.2271 5.83734 38.0767 5.78613L38.1746 5.98811C37.4895 6.44326 37.0308 7.45598 37.0308 9.37615V14.3828H41.6534L40.5096 16.8093C40.1937 16.5562 39.8245 16.4026 39.1673 16.4026H37.0308V34.3014L39.6148 35.664C40.0678 35.903 40.3866 36.0168 40.6579 36.0196C40.9739 36.0231 41.2284 35.8717 41.5527 35.5132L42.1987 34.8049L42.5986 35.2089Z" fill="white"/>
<path d="M24.0117 29.6474C24.0117 30.9617 23.5139 32.2276 23.1672 32.6827H23.019C23.0665 32.2788 23.1168 31.6046 23.1168 31.2149C23.1168 28.4442 22.4848 25.6876 18.346 23.5826C16.657 22.7235 15.2224 21.9554 14.1709 21.4576L12.3811 24.7944C10.8655 27.6249 8.9275 28.8908 6.76583 28.8908C6.03595 28.8908 5.47109 28.6006 5.07678 28.3844L6.26806 26.2623C6.6372 26.7174 7.11262 27.019 7.76139 27.019C9.39734 27.019 10.8962 26.1229 11.8862 24.3392L13.6228 21.2072C12.5657 20.7066 11.6373 20.2457 9.74689 19.3354C6.58687 17.8135 4.92578 16.2518 4.92578 13.6745C4.92578 12.8125 5.17462 11.7514 5.37319 11.3475H5.52419C5.68081 13.8764 6.29046 15.4951 10.2447 17.5148C13.3683 19.1135 16.3326 20.5985 19.3388 22.1147C22.826 23.8756 24.0117 26.4642 24.0117 29.6474Z" fill="white"/>
<path d="M155.319 36.4236V23.7846L153.728 24.5924C151.586 25.682 150.249 28.0317 150.249 31.4681C150.249 34.327 152.123 36.4805 153.779 37.4334L155.319 36.4236ZM164.165 35.3113L159.643 40.4175L155.168 37.3339L150.297 40.4175C147.484 39.1459 145.031 35.9115 145.031 32.6828C145.031 27.5765 150.087 25.5596 153.826 23.7846L155.319 23.0762V18.7295L149.304 15.6971L148.857 16.101C148.709 16.7069 148.658 17.3641 148.658 18.4251C148.658 19.7906 149.357 21.1561 150.149 21.56L149.85 21.9127C147.744 21.762 146.292 19.691 145.974 17.566C147.828 16.3428 150.912 13.885 152.484 12.4598L161.581 16.6045V16.7069C160.999 17.2645 160.686 17.97 160.686 19.1335V35.2089L161.53 35.8176C161.832 36.0338 162.067 36.1704 162.277 36.1704C162.546 36.1704 162.806 35.9769 163.071 35.664L163.717 34.9073L164.165 35.3113Z" fill="white"/>
<path d="M105.123 36.8275V29.4967L101.842 27.8297L96.4257 36.1704C97.4185 35.6157 98.7104 35.1093 100.998 35.1093C102.105 35.1093 103.476 35.61 105.022 36.8275H105.123ZM107.855 17.5148C107.419 17.7254 105.836 18.172 104.675 18.172C103.182 18.172 101.445 17.5661 99.7563 15.7966L99.706 15.8479V22.2683L103.532 24.2397L107.855 17.5148ZM111.384 12.4598C111.384 12.8638 110.973 13.8395 110.788 14.1297L104.625 23.7846L110.788 26.817V26.9194C110.24 27.2722 109.991 27.733 109.991 28.74V36.1704C107.198 36.9299 103.599 38.8501 101.594 40.4175C100.648 39.5584 99.6053 38.8501 98.0169 38.8501C95.6958 38.8501 94.2892 39.86 94.2892 41.3278C94.2892 43.1968 96.2747 43.9051 97.617 43.9051L97.0213 44.6135C95.3882 44.4115 93.4922 43.2992 93.4922 40.9722C93.4922 39.109 94.6891 37.7691 95.4301 36.6255L100.85 28.2849L93.9899 24.7461V24.6437C94.7087 24.1658 94.7842 23.5314 94.7842 22.4191V17.3129C97.6841 16.5562 101.135 14.2804 103.084 12.511C104.661 13.8395 106.115 14.7868 107.606 14.7868C109.558 14.7868 110.688 13.5664 110.688 12.6106C110.688 11.7515 110.391 11.3987 109.991 11.0944L110.788 10.5396C111.099 10.8639 111.384 11.3447 111.384 12.4598Z" fill="white"/>
<path d="M87.9244 22.6211C86.6156 20.9825 84.1463 17.9188 83.0026 16.1522L82.8544 16.2518V26.0603L87.9244 22.6211ZM93.0419 19.9413L82.8544 26.8682V33.4394L87.3763 35.8176C87.7286 36.0025 87.9943 36.0708 88.2208 36.0708C88.5704 36.0708 88.8361 35.8745 89.2164 35.462L89.9602 34.6541L90.4077 35.0581L85.5893 40.4175C82.2587 38.3437 79.0288 36.5231 76.6406 35.3113V35.2088C77.4851 34.8049 77.5858 34.1023 77.5858 33.0867V18.1236C80.8549 17.0113 84.605 14.7355 87.0295 12.5622C88.3634 14.4482 91.3417 18.1037 93.0419 19.9413Z" fill="white"/>
<path d="M53.7335 36.4236V23.7846L52.1423 24.5924C50.0002 25.682 48.6635 27.7785 48.6635 31.4681C48.6635 34.5546 50.5371 36.4805 52.1926 37.4334L53.7335 36.4236ZM62.5788 35.3113L58.0569 40.4175L53.5825 37.3339L48.7111 40.4175C45.8978 39.1459 43.4453 36.2216 43.4453 32.6828C43.4453 27.5765 48.5013 25.5596 52.2402 23.7846L53.7335 23.0762V18.7295L47.7183 15.6971L47.2709 16.101C47.1227 16.7069 47.0723 17.3641 47.0723 18.4251C47.0723 19.7906 47.7714 21.1561 48.5629 21.56L48.2664 21.9127C46.1551 21.762 44.7037 19.691 44.3905 17.566C46.2446 16.3428 49.3263 13.885 50.8979 12.4598L59.9948 16.6045V16.7069C59.4132 17.2645 59.1 17.97 59.1 19.1335V35.2089L59.9445 35.8176C60.2465 36.0338 60.4814 36.1704 60.6912 36.1704C60.9596 36.1704 61.2197 35.9769 61.4853 35.664L62.1313 34.9073L62.5788 35.3113Z" fill="white"/>
<path d="M22.0762 6.24127C20.6529 4.21869 17.9514 3.05805 15.3675 3.05805C10.9938 3.05805 8.90485 4.32963 8.90485 6.69642C8.90485 8.52556 10.5044 9.93654 12.8814 11.1455C14.9676 12.2066 16.1561 12.8182 17.7529 13.6233C18.768 11.8311 20.9325 8.01068 22.0762 6.24127ZM28.8857 25.7047C28.8857 31.835 24.1484 35.462 17.504 40.4175C15.6639 38.7989 13.1722 37.0807 10.6946 37.0807C6.27055 37.0807 3.04067 38.8501 3.04067 41.379C3.04067 43.8567 5.303 45.171 7.46467 45.171C9.02232 45.171 10.0179 44.6134 10.5464 44.3603L10.2975 45.373C9.92836 45.5237 8.95518 45.9277 7.21577 45.9277C3.84043 45.9277 1.35156 44.0075 1.35156 40.4175C1.35156 34.5005 6.76275 32.074 12.0369 32.074C16.5168 32.074 19.9034 34.4835 21.8274 36.1192C23.673 34.401 25.2055 32.1252 25.2055 29.2435C25.2055 25.7047 23.5695 22.5698 20.485 21.0536C17.4844 19.5772 14.6404 18.2231 11.6873 16.8093C8.13583 15.1054 6.32093 13.4497 6.32093 9.5781C6.32093 4.82745 10.1912 0.224731 17.2048 0.224731C20.0963 0.224731 22.7698 1.03547 24.512 2.1961L25.3565 0.881855L25.9522 1.23743C23.5947 4.81323 20.0348 10.6392 18.3486 13.9248C19.6126 14.5336 20.8318 15.1139 22.7726 16.101C27.1519 18.3256 28.8857 21.2556 28.8857 25.7047Z" fill="white"/>
<path d="M182.205 39.254C181.271 38.5286 179.501 37.2741 178.329 36.4748C178.528 36.1192 178.578 35.8176 178.578 35.2601V17.9188L174.056 14.9887L173.41 15.4922L177.831 18.3739V35.2089C177.831 36.0452 177.781 36.3724 177.485 36.7279C178.477 37.3794 180.611 38.9098 181.71 39.8116L182.205 39.254Z" fill="white"/>
<path d="M170.323 39.254L167.39 37.0295C167.787 36.6767 167.935 36.0281 167.935 35.3625V17.5148L166.296 16.0498C166.112 15.8848 165.849 15.7966 165.552 15.7966L165.055 16.4026C165.401 16.4026 165.608 16.485 165.748 16.6045L167.191 17.8192V35.2601C167.191 36.2216 166.892 36.6767 166.447 37.1802L169.825 39.7604L170.323 39.254Z" fill="white"/>
<path d="M148.804 21.156C148.01 20.3737 147.124 18.9087 147.115 17.364L146.52 17.768C146.866 19.5374 147.89 20.681 148.706 21.2044L148.804 21.156Z" fill="white"/>
<path d="M160.088 39.254L156.509 36.8275V17.97L150.345 14.8351L149.699 15.3415L155.762 18.3739V37.1319L159.59 39.8116L160.088 39.254Z" fill="white"/>
<path d="M150.893 39.5072C149.501 38.7989 146.22 36.2728 146.22 32.6828C146.22 30.5066 146.769 29.144 147.263 28.3844H147.115C146.668 28.8396 145.477 30.3558 145.477 32.6828C145.477 36.0196 148.209 38.9013 150.247 39.9111L150.893 39.5072Z" fill="white"/>
<path d="M140.51 39.3052L136.681 36.5743C136.98 36.2728 136.98 35.7551 136.98 35.1605V18.3768L132.607 15.2903L132.059 15.8478L136.234 18.8319V34.9585C136.234 36.0708 136.133 36.4235 135.688 36.7763L140.012 39.86L140.51 39.3052Z" fill="white"/>
<path d="M128.678 39.254L125.745 37.0295C126.144 36.6767 126.34 36.1192 126.34 35.3625V18.2232L121.818 15.1395L121.223 15.6459L125.596 18.6783V35.4137C125.596 36.2472 125.347 36.7279 124.752 37.1803L128.18 39.8116L128.678 39.254Z" fill="white"/>
<path d="M118.046 39.254L115.163 37.0807C115.56 36.6767 115.658 36.1192 115.658 35.0581V17.1621L114.117 15.9474C113.924 15.7966 113.622 15.7454 113.373 15.7454L112.875 16.303C113.222 16.303 113.423 16.3428 113.571 16.4538L114.914 17.4636V34.9585C114.914 36.2216 114.665 36.7279 114.117 37.1802L117.548 39.7604L118.046 39.254Z" fill="white"/>
<path d="M108.3 16.6557C107.358 16.9601 106.709 17.0625 105.121 17.0625C103.281 17.0625 101.642 15.7966 100.797 14.9375L100.051 15.3927C100.848 16.2006 102.635 17.7168 104.822 17.7168C106.066 17.7168 107.557 17.2645 108.2 16.9089L108.3 16.6557Z" fill="white"/>
<path d="M101.541 27.3233L95.7271 24.2397C95.976 23.7845 95.976 23.3407 95.976 22.621V17.5148L95.2294 17.7168V22.4703C95.2294 23.5825 95.1315 24.0889 94.7344 24.5441L101.144 27.878L101.541 27.3233Z" fill="white"/>
<path d="M106.313 37.0807V28.6376L102.537 26.7174L102.09 27.3746L105.566 29.144V37.4334L106.313 37.0807Z" fill="white"/>
<path d="M89.0719 21.8644C87.8358 20.4249 85.2966 17.2303 84.0522 15.4439L83.4062 15.899C84.508 17.4864 87.0249 20.7635 88.3756 22.3679L89.0719 21.8644Z" fill="white"/>
<path d="M102.288 39.3052C101.791 38.7989 100.3 37.789 98.6613 37.789C96.7206 37.789 95.6271 38.4973 94.9336 39.1516V39.3564C95.6775 38.7989 96.3738 38.4461 98.3117 38.4461C99.8526 38.4461 100.946 39.254 101.642 39.8116L102.288 39.3052Z" fill="white"/>
<path d="M73.9083 15.5947C73.6594 15.4439 73.2091 15.3927 72.9127 15.3927H70.2812V16.0498H72.566C73.0134 16.0498 73.3602 16.101 73.6091 16.2518L73.9083 15.5947Z" fill="white"/>
<path d="M66.2028 14.5336V10.9436C66.2028 10.3377 66.0546 9.62932 65.8057 9.27374L65.1094 9.47856C65.4086 9.83131 65.459 10.386 65.459 11.1456V14.5336H66.2028Z" fill="white"/>
<path d="M85.936 39.254L78.3324 34.9585C78.7295 34.6029 78.7798 34.0567 78.7798 33.3911V18.2231L78.0331 18.4763V33.2887C78.0331 34.2502 77.9352 34.7053 77.4375 35.1605C79.9487 36.5117 83.4583 38.5713 85.4886 39.8116L85.936 39.254Z" fill="white"/>
<path d="M71.6731 39.2028C70.2358 38.284 67.5008 36.5914 66.0075 35.7152C66.1557 35.3113 66.206 34.8476 66.206 34.2502V15.3927H63.0264L62.6797 16.0498H65.4622V34.401C65.4622 35.4108 65.4118 35.7152 65.1126 36.0196C66.88 37.0494 69.682 38.7875 71.1782 39.7604L71.6731 39.2028Z" fill="white"/>
<path d="M47.2222 21.156C46.428 20.3737 45.5416 18.9087 45.5332 17.364L44.9375 17.768C45.2842 19.5374 46.3078 20.681 47.1243 21.2044L47.2222 21.156Z" fill="white"/>
<path d="M58.5061 39.254L54.9266 36.8275V17.97L48.7632 14.8351L48.1172 15.3415L54.1828 18.3739V37.1319L58.0083 39.8116L58.5061 39.254Z" fill="white"/>
<path d="M40.6611 15.5947C40.4122 15.4439 39.9592 15.3927 39.6655 15.3927H37.0312V16.0498H39.3188C39.7662 16.0498 40.1129 16.101 40.3618 16.2518L40.6611 15.5947Z" fill="white"/>
<path d="M32.9606 14.5336V10.9436C32.9606 10.3377 32.8124 9.62932 32.5635 9.27374L31.8672 9.47856C32.1664 9.83131 32.2139 10.386 32.2139 11.1456V14.5336H32.9606Z" fill="white"/>
<path d="M22.8209 5.07779C21.2325 3.56157 18.9953 1.99414 15.7654 1.99414C13.4276 1.99414 12.2363 2.60006 11.6881 2.90445L11.6406 3.10641C12.583 2.80488 13.8275 2.60006 15.4159 2.60006C18.945 2.60006 21.1822 4.42067 22.3735 5.78612L22.8209 5.07779Z" fill="white"/>
<path d="M49.3113 39.5072C47.9187 38.7989 44.6384 36.2728 44.6384 32.6828C44.6384 30.5066 45.1865 29.144 45.6843 28.3844H45.5333C45.0858 28.8396 43.8945 30.3558 43.8945 32.6828C43.8945 36.0708 46.6267 38.9013 48.6653 39.9111L49.3113 39.5072Z" fill="white"/>
<path d="M38.426 39.2028C36.9857 38.284 34.2508 36.5914 32.7603 35.7152C32.9085 35.3113 32.9588 34.8476 32.9588 34.2502V15.3927H29.7792L29.4297 16.0498H32.2122V34.401C32.2122 35.4108 32.1647 35.7152 31.8654 36.0196C33.63 37.0494 36.4321 38.7875 37.9282 39.7604L38.426 39.2028Z" fill="white"/>
<path d="M26.0972 27.6278C26.0972 24.0377 24.3913 21.5629 20.9293 19.893L12.1316 15.6459C8.39831 13.8423 7.3133 11.7515 6.81551 9.17419L6.71484 9.27376C6.76518 12.1583 7.38601 14.1809 11.8827 16.3542L20.5826 20.5501C24.1984 22.2939 25.6526 25.4516 25.7001 29.2435L25.8511 29.144C25.949 28.8908 26.0972 27.8781 26.0972 27.6278Z" fill="white"/>
<path d="M9.45035 27.6761V27.5253C8.90224 27.7273 8.20595 27.8809 7.36419 27.8809C6.93913 27.8809 6.41895 27.6277 6.0694 27.4258L5.72266 28.0829C6.02189 28.2848 6.52525 28.4356 6.91676 28.4356C8.15838 28.4356 8.90224 28.0317 9.45035 27.6761Z" fill="white"/>
<path d="M18.2435 39.254C16.6048 37.6354 14.0208 35.9172 10.9391 35.9172C5.91946 35.9172 4.12972 37.9398 3.28516 39.1516L3.38584 39.254C4.18004 38.2441 6.36688 36.6255 10.6902 36.6255C13.772 36.6255 16.3559 38.5969 17.55 39.8116L18.2435 39.254Z" fill="white"/>
</svg>
