<svg width="185" height="46" viewBox="0 0 185 46" fill="none" xmlns="http://www.w3.org/2000/svg">
<path d="M23.8208 0.255859C10.676 0.255859 0 10.4923 0 23.1599C0 29.8776 3.06934 35.9554 7.87353 40.114L17.6154 11.7719C18.4828 10.0445 19.5504 9.66059 20.8849 9.66059H26.3563C26.6232 9.66059 26.8901 9.66059 27.157 9.66059C25.6891 10.1724 24.2211 11.452 23.4204 13.8191C23.287 14.267 22.8866 15.3546 22.7532 15.6105L21.0183 21.3045L14.2791 44.0806C17.215 45.2962 20.4178 46 23.8208 46C36.9656 46 47.6415 35.7635 47.6415 23.1599C47.7083 10.4923 37.0323 0.255859 23.8208 0.255859ZM38.9673 32.0528C38.9673 32.0528 38.567 33.1404 37.833 32.9485C36.4318 32.6286 36.2316 30.9652 35.7645 29.6856C35.5643 29.1738 35.6978 29.4937 35.0973 27.3824L39.2342 18.9374C39.2342 18.9374 39.1675 20.7927 41.0358 20.9846C42.2368 21.1126 43.8382 19.7051 44.9725 19.4492L38.9673 32.0528Z" fill="white"/>
<path d="M34.6337 31.861L32.9656 25.911C31.4977 20.4089 29.3625 12.3478 29.3625 12.3478C29.229 11.8359 29.2957 11.9639 29.0956 11.8359C28.2281 11.772 26.1597 12.4757 25.2255 15.4187C24.9586 16.2504 24.8252 16.7622 24.625 17.5939L25.4257 20.6009C25.826 21.8804 26.4933 24.3756 26.8269 25.5911L27.0938 26.5508C27.4274 27.7664 28.0947 29.7497 28.4283 30.9653L28.9621 32.6287C29.5626 34.4841 31.9647 34.2921 32.0982 34.2921L33.1658 34.2281H36.5687C36.5687 34.2921 35.2342 33.9083 34.6337 31.861Z" fill="#03091D"/>
<path d="M67.3637 17.8497H64.8282L66.4296 13.3073H73.9695L75.5042 17.8497H72.9019V20.3449H81.109V17.8497H78.7737L73.1688 2.55905H75.6376V0.319824H64.8949V2.55905H67.3637L61.6254 17.8497H59.0898V20.3449H67.3637V17.8497ZM70.0994 2.55905H70.3663L73.1021 11.0041H67.1636L70.0994 2.55905Z" fill="white"/>
<path d="M93.718 6.39783H88.3132V8.82898H90.7821V16.3784C89.5143 17.466 87.8462 18.1697 86.6451 18.1697C85.5108 18.1697 84.9103 17.53 84.9103 16.1224V6.39783H79.9727V8.82898H82.0411V16.2504C82.0411 19.1934 83.4423 20.5369 86.1113 20.5369C87.646 20.5369 89.2474 19.8971 90.8488 18.6816V20.281H96.2535V17.9138H93.7847V6.39783H93.718Z" fill="white"/>
<path d="M99.727 19.5772C100.795 20.281 101.996 20.6009 103.53 20.6009C106.867 20.6009 109.135 18.8735 109.135 16.3783C109.135 15.4187 108.802 14.331 107.934 13.4993C105.532 11.1961 99.9271 12.5397 99.9271 10.2365C99.9271 9.21283 100.928 8.50907 102.463 8.50907C103.931 8.50907 104.998 9.02089 105.866 10.2365V11.0682H108.401V6.3978H105.866V6.9736C104.931 6.46178 103.664 6.20587 102.329 6.20587C99.3933 6.20587 97.1914 7.93327 97.1914 10.3004C97.1914 11.3241 97.6585 12.2838 98.3257 12.9875C101.128 15.6746 106.199 14.0112 106.199 16.5703C106.199 17.6579 104.998 18.2977 103.197 18.2977C101.262 18.2977 99.9939 17.466 99.727 16.0584V15.6106H97.1914V20.4089H99.727V19.5772Z" fill="white"/>
<path d="M116.871 20.217V17.7219C115.47 18.1697 114.202 18.2337 114.202 16.8901V8.82895H116.871V6.39779H114.202V1.72742L111.333 4.22255V6.39779H109.465V8.82895H111.333V17.274C111.333 19.7052 112.734 20.6009 114.803 20.6009C115.47 20.6009 116.204 20.4089 116.871 20.217Z" fill="white"/>
<path d="M121.68 3.32684C122.638 3.32684 123.415 2.5821 123.415 1.66342C123.415 0.744739 122.638 0 121.68 0C120.722 0 119.945 0.744739 119.945 1.66342C119.945 2.5821 120.722 3.32684 121.68 3.32684Z" fill="white"/>
<path d="M125.681 17.9138H123.345V6.39783H118.141V8.82898H120.476V17.9138H118.141V20.345H125.681V17.9138Z" fill="white"/>
<path d="M129.149 17.9138H126.68V20.345H134.553V17.9138H132.084V10.4284C133.552 9.27682 135.087 8.63704 136.288 8.63704C137.489 8.63704 137.956 9.40477 137.956 11.1961V20.345H143.361V17.9138H140.892V10.1085C140.892 7.35748 139.157 6.14191 137.089 6.14191C135.554 6.14191 134.086 6.71771 132.151 8.06124V6.39782H126.68V8.82897H129.215V17.9138H129.149Z" fill="white"/>
<path d="M66.965 42.993C62.8281 42.993 59.692 39.6662 59.692 35.3157C59.692 30.9012 62.6279 27.7023 66.8316 27.7023C69.7675 27.7023 72.3697 29.2378 73.5708 31.7969H76.3065V25.3351H73.5708V27.1905C71.7692 25.783 69.3004 25.0153 66.6981 25.0153C60.426 25.0153 56.2891 29.1738 56.2891 35.3797C56.2891 41.4575 60.5595 45.744 66.7649 45.744C71.836 45.744 75.6393 43.057 76.907 38.7065L74.1713 37.235C73.037 41.2016 69.7675 42.993 66.965 42.993Z" fill="white"/>
<path d="M92.1196 35.2518C92.1196 32.1168 90.3848 31.0292 88.1161 31.0292C86.5147 31.0292 85.1135 31.605 83.3119 33.0125V25.3352H77.7738V27.7664H80.376V42.9931H77.707V45.4242H85.714V42.9931H83.2452V35.3157C84.8466 34.1641 86.3813 33.4604 87.3821 33.4604C88.7166 33.4604 89.1837 34.484 89.1837 35.8276V45.3602H94.5884V42.9291H92.1196V35.2518Z" fill="white"/>
<path d="M107.663 35.3157C107.663 33.0765 106.195 31.0292 101.992 31.0292C99.0556 31.0292 96.9204 32.1168 95.7194 34.292L98.4551 34.9958C99.1224 33.9082 100.19 33.3324 101.591 33.3324C103.326 33.3324 104.794 34.0361 104.794 36.0194V37.8748C103.593 37.1071 102.125 36.7232 100.857 36.7232C97.8546 36.7232 95.5859 38.7065 95.5859 41.2656C95.5859 43.7608 97.7211 45.6801 100.524 45.6801C102.125 45.6801 103.393 45.1683 105.194 43.7608V45.4881H110.265V43.057H107.797V35.3157H107.663ZM104.727 41.8414C103.526 42.8651 102.125 43.5048 100.79 43.5048C99.2558 43.5048 98.1882 42.5452 98.1882 41.2016C98.1882 39.7941 99.3893 38.8345 100.991 38.8345C102.192 38.8345 103.526 39.2823 104.727 40.242V41.8414Z" fill="white"/>
<path d="M134.423 35.0599C134.423 32.6287 132.955 31.2212 130.553 31.2212C128.885 31.2212 127.417 31.861 125.348 33.3964C124.748 31.9889 123.48 31.2212 121.812 31.2212C120.211 31.2212 118.609 31.9249 116.874 33.2045V31.4771H111.536V33.9083H113.939V42.9931H111.27V45.4243H119.277V42.9931H116.808V35.4437C118.543 34.2921 119.877 33.7163 120.878 33.7163C121.812 33.7163 122.679 34.2281 122.679 35.6996V45.3603H128.084V42.9291H125.615V35.4437C127.083 34.2921 128.551 33.5884 129.752 33.5884C130.887 33.5884 131.487 34.2921 131.487 35.6357V45.3603H136.892V42.9291H134.423V35.0599Z" fill="white"/>
<path d="M148.637 31.0292C146.502 31.0292 144.901 31.733 143.366 33.3964V25.3352H137.961V27.7664H140.497V42.9931H137.895V45.4242H143.366V43.3129H143.433C144.434 44.7205 146.502 45.6161 148.637 45.6161C152.707 45.6161 155.777 42.5452 155.777 38.2587C155.71 34.0362 152.774 31.0292 148.637 31.0292ZM148.037 43.185C145.368 43.185 143.499 41.1377 143.499 38.4506C143.499 35.5716 145.434 33.5244 148.103 33.5244C150.105 33.5244 152.707 34.8039 152.707 38.1947C152.641 41.0737 150.706 43.185 148.037 43.185Z" fill="white"/>
<path d="M164.513 31.0292C160.71 31.0292 156.84 33.9082 156.84 38.3867C156.84 42.6732 160.243 45.7441 164.914 45.7441C168.05 45.7441 170.652 44.4646 172.187 42.0974L169.651 41.0098C168.583 42.4813 166.849 43.313 164.914 43.313C162.178 43.313 160.376 41.7775 159.909 39.0265H172.32C172.32 33.9722 168.583 31.0292 164.513 31.0292ZM160.176 37.1071C160.576 34.8039 162.311 33.2685 164.58 33.2685C166.849 33.2685 168.917 34.8679 169.384 37.1071H160.176Z" fill="white"/>
<path d="M183.067 31.2212C181.265 31.2212 179.397 32.2448 178.463 34.612H178.396V31.4771H173.191V33.9083H176.127V42.9931H173.258V45.4243H182.133V42.9931H178.996V39.0265C178.996 35.8276 179.997 34.0362 183.4 34.0362H184.935V31.2852H183.067V31.2212Z" fill="white"/>
</svg>
