<svg width="149" height="149" viewBox="0 0 149 149" fill="none" xmlns="http://www.w3.org/2000/svg">
<circle cx="74.5" cy="74.5" r="73.5" stroke="#3794D0" stroke-width="2"/>
<path d="M60.334 53C60.334 53 65.6673 42.3333 75.0007 42.3333C84.334 42.3333 89.6673 53 89.6673 53C89.6673 53 84.334 63.6667 75.0007 63.6667C65.6673 63.6667 60.334 53 60.334 53Z" stroke="#3794D0" stroke-width="2" stroke-linecap="round" stroke-linejoin="round"/>
<path d="M75 57C77.2091 57 79 55.2091 79 53C79 50.7909 77.2091 49 75 49C72.7909 49 71 50.7909 71 53C71 55.2091 72.7909 57 75 57Z" stroke="#3794D0" stroke-width="2" stroke-linecap="round" stroke-linejoin="round"/>
<path d="M38.2321 101H39.5821L44.4781 88.112H43.1461L39.7261 97.058C39.5281 97.544 39.2041 98.444 38.9341 99.38C38.6461 98.48 38.3941 97.778 38.1241 97.076L34.6861 88.112H33.3001L38.2321 101ZM46.5594 89.894C47.0634 89.894 47.4954 89.48 47.4954 88.976C47.4954 88.472 47.0634 88.04 46.5594 88.04C46.0554 88.04 45.6414 88.472 45.6414 88.976C45.6414 89.48 46.0554 89.894 46.5594 89.894ZM45.9474 101H47.1894V92.288H45.9474V101ZM53.4334 101.216C55.4854 101.216 56.8354 100.226 57.3034 98.39H56.1154C55.7914 99.542 54.8734 100.154 53.4514 100.154C51.5794 100.154 50.4634 98.93 50.3734 96.806H57.3034V96.194C57.3034 93.728 55.7014 92.054 53.3434 92.054C50.8594 92.054 49.1674 93.926 49.1674 96.644C49.1674 99.38 50.8774 101.216 53.4334 101.216ZM53.3434 93.116C54.9814 93.116 56.0614 94.232 56.0614 95.906H50.4094C50.6254 94.196 51.7054 93.116 53.3434 93.116ZM60.8966 101H62.1386L63.9386 95.528C64.1726 94.808 64.3166 94.286 64.4426 93.818C64.5506 94.34 64.6946 94.88 64.9106 95.528L66.7106 101H67.9166L70.8686 92.288H69.5726L67.8446 97.544C67.5386 98.48 67.5026 98.696 67.3226 99.416C67.1606 98.768 66.9446 98.012 66.7826 97.544L65.0726 92.288H63.7946L62.0666 97.544C61.9766 97.832 61.6886 98.714 61.5446 99.416C61.3646 98.714 61.2026 98.12 61.0046 97.544L59.2946 92.288H58.0166L60.8966 101ZM78.6542 101V95.6C78.6542 94.268 79.5362 93.188 80.9942 93.188C82.3082 93.188 83.1542 94.052 83.1542 95.528V101H84.3782V95.618C84.3782 94.268 85.2422 93.17 86.7002 93.17C88.0322 93.17 88.8602 94.052 88.8602 95.546V101H90.0662V95.294C90.0662 93.278 88.8242 92.054 86.9342 92.054C85.5302 92.054 84.4682 92.774 84.0722 93.908C83.6582 92.774 82.6322 92.054 81.2642 92.054C80.0402 92.054 79.0682 92.612 78.6362 93.53L78.4922 92.288H77.4122V101H78.6542ZM91.9526 96.644C91.9526 99.29 93.8246 101.216 96.3806 101.216C98.9366 101.216 100.809 99.29 100.809 96.644C100.809 93.98 98.9366 92.054 96.3806 92.054C93.8246 92.054 91.9526 93.98 91.9526 96.644ZM93.2126 96.626C93.2126 94.61 94.5086 93.17 96.3806 93.17C98.2346 93.17 99.5486 94.61 99.5486 96.626C99.5486 98.678 98.2346 100.1 96.3806 100.1C94.5086 100.1 93.2126 98.678 93.2126 96.626ZM107.349 92.18C107.043 92.108 106.809 92.09 106.539 92.09C105.315 92.09 104.397 92.702 104.055 93.638L103.965 92.288H102.795V101H104.037V96.032C104.037 94.376 105.063 93.296 106.665 93.296H107.349V92.18ZM112.32 101.216C114.372 101.216 115.722 100.226 116.19 98.39H115.002C114.678 99.542 113.76 100.154 112.338 100.154C110.466 100.154 109.35 98.93 109.26 96.806H116.19V96.194C116.19 93.728 114.588 92.054 112.23 92.054C109.746 92.054 108.054 93.926 108.054 96.644C108.054 99.38 109.764 101.216 112.32 101.216ZM112.23 93.116C113.868 93.116 114.948 94.232 114.948 95.906H109.296C109.512 94.196 110.592 93.116 112.23 93.116Z" fill="#3794D0"/>
</svg>
