<svg width="72" height="72" viewBox="0 0 72 72" fill="none" xmlns="http://www.w3.org/2000/svg">
<path d="M0 36C0 55.8824 16.1177 72 36 72C55.8824 72 72 55.8824 72 36C72 16.1177 55.8824 0 36 0C16.1177 0 0 16.1177 0 36Z" fill="white"/>
<path d="M21.0738 50.5104C21.2383 50.9357 21.3998 51.3612 21.5585 51.7871C21.9459 52.6873 22.4159 53.5497 22.9624 54.3631C22.1602 52.0902 21.3051 49.8361 20.3973 47.6012C20.5318 48.5896 20.758 49.5632 21.0732 50.5093L21.0738 50.5104ZM20.3712 47.4378C21.4061 49.8874 22.3832 52.3608 23.3024 54.8585C23.5699 55.2208 23.852 55.5745 24.1488 55.9194C22.9608 52.589 21.6671 49.2981 20.2676 46.0469C20.2856 46.5122 20.3237 46.9746 20.3809 47.4378" fill="#FFB11A"/>
<path fill-rule="evenodd" clip-rule="evenodd" d="M20.2616 45.9714C21.827 49.4562 23.24 52.9228 24.5068 56.3101C24.7435 56.5655 24.9878 56.813 25.2398 57.0522C23.7337 52.9414 22.074 48.8919 20.261 44.9033C20.2489 45.2584 20.2489 45.6134 20.261 45.9714" fill="#FFB11A"/>
<path fill-rule="evenodd" clip-rule="evenodd" d="M20.2656 44.8513C22.2044 48.9628 23.987 53.1433 25.6138 57.3924C25.8345 57.589 26.0588 57.7783 26.2868 57.9607C24.4976 53.2069 22.5095 48.5339 20.3228 43.9419C20.2947 44.2434 20.2756 44.5442 20.2656 44.8444" fill="#FFB11A"/>
<path fill-rule="evenodd" clip-rule="evenodd" d="M20.3234 43.9141C22.6431 48.6074 24.7624 53.3914 26.6812 58.2662C26.8898 58.4215 27.1006 58.5704 27.3139 58.7135C25.2554 53.4114 22.957 48.2137 20.4186 43.1201C20.3795 43.3838 20.3495 43.6495 20.3184 43.9162" fill="#FFB11A"/>
<path fill-rule="evenodd" clip-rule="evenodd" d="M20.4239 43.1012C23.2317 48.5215 25.6595 53.9023 27.7362 58.9875C27.9369 59.112 28.1374 59.2319 28.3379 59.3475C26.0154 53.5714 23.4171 47.9173 20.5432 42.3853C20.4961 42.6229 20.456 42.8625 20.4219 43.1012" fill="#FFB11A"/>
<path fill-rule="evenodd" clip-rule="evenodd" d="M20.5469 42.3715C23.5634 47.9761 26.3093 53.7138 28.7849 59.5847C28.9764 59.6848 29.1679 59.7802 29.3625 59.8725C26.7779 53.6778 23.8831 47.6172 20.6893 41.7139C20.6371 41.9323 20.589 42.151 20.5489 42.3715" fill="#FFB11A"/>
<path fill-rule="evenodd" clip-rule="evenodd" d="M20.6914 41.7059C24.0361 47.6807 27.0826 53.8075 29.8309 60.0863C30.0161 60.1664 30.2033 60.2429 30.3925 60.3158C27.5436 53.7485 24.3583 47.332 20.8492 41.0923C20.7935 41.2928 20.741 41.4964 20.6917 41.7029" fill="#FFB11A"/>
<path fill-rule="evenodd" clip-rule="evenodd" d="M20.8496 41.0909C24.5126 47.3905 27.8552 53.8606 30.8776 60.501C31.0558 60.5633 31.2361 60.622 31.4181 60.6776C28.3043 53.7827 24.8337 47.0548 21.0201 40.521C20.9589 40.7125 20.9031 40.903 20.8496 41.0936" fill="#FFB11A"/>
<path fill-rule="evenodd" clip-rule="evenodd" d="M21.0215 40.5162C24.9939 47.1006 28.6342 53.8796 31.9289 60.8278C32.1035 60.876 32.2799 60.9192 32.4574 60.9617C29.0732 53.7765 25.3175 46.7721 21.206 39.9771C21.1408 40.1555 21.0796 40.3339 21.0222 40.5146" fill="#FFB11A"/>
<path fill-rule="evenodd" clip-rule="evenodd" d="M32.9832 61.0776C33.1545 61.1118 33.3259 61.1436 33.4978 61.1728C29.8416 53.7406 25.8062 46.5008 21.4076 39.4824L21.3976 39.4673C21.3307 39.6358 21.2672 39.8064 21.2061 39.9767C25.4793 46.8097 29.4046 53.8428 32.9819 61.0756" fill="#FFB11A"/>
<path d="M34.0398 61.252C34.207 61.2749 34.3741 61.2961 34.5413 61.3112C30.6054 53.6618 26.2879 46.215 21.6051 38.9988L21.5951 38.9849C21.5249 39.1446 21.458 39.3053 21.3945 39.467L21.4036 39.4821C25.9663 46.5284 30.1781 53.7847 34.0389 61.2509L34.0398 61.252Z" fill="#FFB11A"/>
<path d="M35.0998 61.3562C35.2613 61.3672 35.4249 61.3729 35.5847 61.3803C31.2163 53.2877 26.5955 45.6213 21.8232 38.5414L21.8111 38.5234C21.7389 38.6758 21.6687 38.8303 21.6016 38.9847L21.6096 38.9986C26.4571 46.2335 30.9533 53.6878 35.0982 61.3612" fill="#FFB11A"/>
<path d="M36.1623 61.3899C36.3198 61.3899 36.4773 61.385 36.6357 61.38C31.9737 53.1378 27.072 45.3184 22.0379 38.093C22.0376 38.0898 22.0376 38.0869 22.0379 38.084C21.9627 38.2293 21.8895 38.3767 21.8193 38.5241L21.8314 38.5421C27.4973 46.69 32.3197 54.6037 36.1715 61.3893" fill="#FFB11A"/>
<path d="M37.2152 61.3523C37.3687 61.3402 37.5233 61.3283 37.6776 61.3123C32.8842 53.2087 27.741 45.329 22.2475 37.6733C22.1733 37.8097 22.1001 37.9469 22.0303 38.0844V38.0927C27.43 45.6217 32.4918 53.3747 37.2157 61.3517" fill="#FFB11A"/>
<path fill-rule="evenodd" clip-rule="evenodd" d="M38.7137 61.1735C33.633 52.9846 28.2222 45.0153 22.4815 37.2656C22.4043 37.3959 22.3291 37.5284 22.2559 37.6607C27.9097 45.3008 33.2458 53.1617 38.2646 61.2432C38.414 61.2221 38.5654 61.2 38.7157 61.1741" fill="#FFB11A"/>
<path fill-rule="evenodd" clip-rule="evenodd" d="M39.7406 60.9679C34.3757 52.7248 28.7033 44.6943 22.7232 36.8765C22.6438 37.0029 22.5657 37.13 22.4893 37.2576C28.3903 44.9805 33.9959 52.9169 39.3062 61.0671C39.4515 61.0361 39.5971 61.0039 39.7406 60.9668" fill="#FFB11A"/>
<path fill-rule="evenodd" clip-rule="evenodd" d="M40.7598 60.6927C35.1087 52.4253 29.179 44.359 22.9711 36.4941C22.8889 36.6152 22.8079 36.7383 22.7285 36.8631C29.6689 45.6357 35.6644 53.9901 40.3345 60.8135L40.7598 60.687" fill="#FFB11A"/>
<path fill-rule="evenodd" clip-rule="evenodd" d="M41.3438 60.4987C41.4803 60.4517 41.6156 60.3984 41.751 60.3505L41.5004 59.9995C35.6499 51.8623 29.5587 43.9068 23.2263 36.1328C23.1422 36.2498 23.0589 36.3688 22.9766 36.4897C29.3416 44.3055 35.4643 52.3092 41.3444 60.5008" fill="#FFB11A"/>
<path fill-rule="evenodd" clip-rule="evenodd" d="M42.3328 60.1147C42.4651 60.0586 42.5945 59.9995 42.7268 59.9412L42.2205 59.2705C36.1775 51.28 29.9328 43.4489 23.4861 35.7769C23.4 35.8912 23.3147 36.0075 23.2314 36.1238C29.8077 43.9516 36.1748 51.9485 42.3328 60.1147Z" fill="#FFB11A"/>
<path fill-rule="evenodd" clip-rule="evenodd" d="M43.6594 59.4689C37.9867 52.32 31.2117 44.0424 23.7498 35.4351C23.6616 35.5464 23.5743 35.6587 23.4893 35.7721C30.2586 43.5938 36.8565 51.5595 43.2825 59.6687C43.4078 59.6046 43.5341 59.5393 43.6594 59.4682" fill="#FFB11A"/>
<path d="M44.5709 58.9275C37.861 50.8689 31.0124 42.9269 24.0255 35.1014C23.9353 35.2096 23.845 35.3185 23.7568 35.4292C30.7096 43.2196 37.5286 51.1277 44.2138 59.1534C44.3349 59.0805 44.4544 59.0063 44.5718 58.9309L44.5709 58.9275ZM45.4545 58.3292C38.5015 50.3924 31.4516 42.5421 24.3043 34.7785C24.21 34.8786 24.1189 34.99 24.0286 35.0982C31.8575 43.5926 39.0595 51.6701 45.1114 58.5716C45.2257 58.4933 45.34 58.412 45.4534 58.3288L45.4545 58.3292ZM46.2917 57.665C40.0423 50.884 32.6155 42.9071 24.5932 34.4633C24.498 34.5634 24.4026 34.6698 24.3103 34.7731C32.3161 43.1966 39.7285 51.1598 45.9709 57.9317C46.0802 57.8455 46.188 57.7573 46.2946 57.6644L46.2917 57.665ZM47.0889 56.9457C39.7105 49.3283 32.3127 41.7305 24.896 34.1521C24.7957 34.2522 24.6955 34.3526 24.6051 34.4529C32.7613 42.786 40.3681 50.605 46.7872 57.2294C46.8873 57.1361 46.9876 57.0389 47.088 56.9417L47.0889 56.9457ZM47.833 56.1728C41.2506 49.7147 33.4789 42.0604 25.1968 33.8524C25.0965 33.9527 24.9964 34.047 24.896 34.1462C33.187 42.3612 40.9608 50.0186 47.5501 56.4806C47.6505 56.3803 47.7407 56.2802 47.8361 56.1737L47.833 56.1728ZM48.528 55.3547C40.8024 48.1464 33.1303 40.8827 25.5116 33.5637C25.4115 33.6569 25.3111 33.7523 25.2049 33.8479C33.5972 41.9193 41.5244 49.3911 48.2632 55.6817C48.3534 55.5734 48.4418 55.4645 48.528 55.3559V55.3547ZM49.1656 54.4934C41.3005 47.5184 33.5227 40.4467 25.8327 33.2782L25.5177 33.5561C33.2309 40.7466 41.0323 47.8404 48.922 54.8381L49.1647 54.4941L49.1656 54.4934ZM49.7434 53.5916C41.7672 46.8635 33.9077 40.001 26.1655 33.0041C26.0563 33.0903 25.9483 33.1826 25.8417 33.2739C33.6161 40.3016 41.5102 47.194 49.5245 53.9516C49.5985 53.8322 49.6728 53.7129 49.7441 53.5916H49.7434ZM50.2576 52.652C42.1983 46.184 34.2817 39.5438 26.5079 32.7314C26.3974 32.8185 26.2843 32.9049 26.1749 32.9951C33.9898 39.8455 41.9512 46.5233 50.0593 53.028C50.1262 52.9027 50.193 52.7762 50.2598 52.65" fill="#FFB11A"/>
<path fill-rule="evenodd" clip-rule="evenodd" d="M50.5296 52.0903C50.5887 51.9601 50.6466 51.8275 50.7021 51.6952L50.1144 51.247C42.2034 45.1894 34.452 38.9319 26.8596 32.4746C26.7426 32.5581 26.6278 32.644 26.5146 32.7304C34.3464 39.3949 42.3515 45.8484 50.5296 52.0903Z" fill="#FFB11A"/>
<path fill-rule="evenodd" clip-rule="evenodd" d="M50.9353 51.109C50.9875 50.9736 51.0356 50.8384 51.0827 50.7C50.9976 50.6388 50.9123 50.5785 50.828 50.5144C42.7795 44.6536 34.9112 38.5549 27.2232 32.2183C27.1042 32.3006 26.9858 32.3839 26.8682 32.468C34.5857 38.8357 42.4924 44.9665 50.5883 50.8604L50.9353 51.114" fill="#FFB11A"/>
<path fill-rule="evenodd" clip-rule="evenodd" d="M51.3969 49.6845C44.6149 44.9865 36.3147 38.9545 27.5935 31.9712C27.4722 32.0493 27.3498 32.1305 27.2285 32.2137C35.0349 38.4546 43.0503 44.4195 51.2745 50.1087C51.3177 49.9683 51.3582 49.827 51.396 49.6845" fill="#FFB11A"/>
<path fill-rule="evenodd" clip-rule="evenodd" d="M51.6435 48.6535C43.5455 43.3107 35.6586 37.6693 27.9825 31.7295C27.8551 31.8035 27.7287 31.8838 27.6045 31.9633C35.3641 37.9753 43.3446 43.684 51.5463 49.0896C51.5814 48.9431 51.6131 48.7978 51.6464 48.6502" fill="#FFB11A"/>
<path fill-rule="evenodd" clip-rule="evenodd" d="M51.8207 47.6025C43.7931 42.5538 35.9818 37.1841 28.3862 31.4937C28.2526 31.5679 28.1216 31.644 27.9932 31.7223C36.5873 38.1892 44.8583 43.7177 51.7534 48.0512C51.7775 47.9018 51.8006 47.7504 51.8204 47.5998" fill="#FFB11A"/>
<path fill-rule="evenodd" clip-rule="evenodd" d="M51.9283 46.548C44.0056 41.7949 36.3007 36.7034 28.8138 31.2734H28.8048C28.6673 31.3448 28.531 31.4188 28.3955 31.4942C35.9944 37.0089 43.826 42.1817 51.8902 47.0124C51.9069 46.8569 51.9193 46.7015 51.9303 46.546" fill="#FFB11A"/>
<path fill-rule="evenodd" clip-rule="evenodd" d="M51.9591 45.9595L51.9672 45.4831C44.1813 41.0245 36.6123 36.2167 29.2597 31.0595L29.2431 31.0474C29.0952 31.1189 28.9494 31.1923 28.8057 31.267H28.8147C35.9949 36.3333 43.7655 41.266 51.9593 45.957" fill="#FFB11A"/>
<path d="M51.9607 44.9086C51.9546 44.7452 51.9465 44.5817 51.9355 44.4183C44.3143 40.248 36.903 35.7207 29.7014 30.8364C29.5491 30.9033 29.4006 30.9748 29.2451 31.0479L29.2633 31.0601C36.2995 35.8625 43.9183 40.5103 51.9586 44.9086" fill="#FFB11A"/>
<path fill-rule="evenodd" clip-rule="evenodd" d="M51.8926 43.8561C51.8757 43.6876 51.8575 43.5182 51.8352 43.3497C44.4192 39.4727 37.207 35.2364 30.1985 30.6408L30.1834 30.6309C30.023 30.6977 29.8637 30.7645 29.7051 30.8313L29.7193 30.8394C36.8855 35.5503 44.286 39.8948 51.8926 43.8561Z" fill="#FFB11A"/>
<path d="M51.7517 42.8046C51.7236 42.6306 51.6925 42.458 51.6586 42.2864C44.475 38.6891 37.4759 34.7342 30.6879 30.4365C30.5176 30.4988 30.349 30.563 30.1816 30.6311L30.1965 30.6413C37.1692 35.0639 44.3656 39.124 51.7567 42.8052" fill="#FFB11A"/>
<path fill-rule="evenodd" clip-rule="evenodd" d="M51.4077 41.2276C44.4975 37.9106 37.759 34.247 31.218 30.251C31.0396 30.3102 30.861 30.3714 30.6846 30.4366C37.435 34.5717 44.3974 38.3507 51.5427 41.7581C51.5007 41.5799 51.4561 41.4024 51.4091 41.2256" fill="#FFB11A"/>
<path fill-rule="evenodd" clip-rule="evenodd" d="M51.0875 40.1673C44.4908 37.1291 38.0508 33.7615 31.7918 30.0771C31.6012 30.1311 31.4097 30.1883 31.2236 30.2506C37.7147 34.0853 44.4023 37.5771 51.2592 40.7118C51.203 40.5293 51.1449 40.3477 51.0826 40.1673" fill="#FFB11A"/>
<path fill-rule="evenodd" clip-rule="evenodd" d="M50.6754 39.1115C44.4375 36.3498 38.3463 33.2853 32.4024 29.918C32.202 29.967 32.0013 30.0181 31.8008 30.0764C37.9982 33.605 44.374 36.8102 50.9031 39.6791C50.8302 39.4886 50.7539 39.3 50.6745 39.1135" fill="#FFB11A"/>
<path fill-rule="evenodd" clip-rule="evenodd" d="M50.1767 38.0622C44.344 35.5732 38.6405 32.8102 33.0659 29.7729C32.8474 29.8157 32.6301 29.8632 32.4141 29.9154C38.2796 33.1268 44.3042 36.0385 50.4645 38.6398C50.3733 38.4393 50.277 38.2507 50.1778 38.059" fill="#FFB11A"/>
<path fill-rule="evenodd" clip-rule="evenodd" d="M49.5842 37.0076C44.2126 34.7954 38.95 32.3426 33.7971 29.6489C33.5575 29.6825 33.3199 29.7252 33.082 29.7704C38.5707 32.6585 44.1905 35.2737 49.9411 37.6162C49.8268 37.411 49.7077 37.208 49.5842 37.0076Z" fill="#FFB11A"/>
<path fill-rule="evenodd" clip-rule="evenodd" d="M48.8616 35.948C44.0192 34.018 39.2651 31.8859 34.5998 29.5513C34.3356 29.5767 34.0721 29.6084 33.8096 29.6464C38.8655 32.197 44.0313 34.5098 49.3067 36.5848C49.1638 36.3697 49.0153 36.1573 48.8616 35.948Z" fill="#FFB11A"/>
<path fill-rule="evenodd" clip-rule="evenodd" d="M47.9953 34.8723C43.7743 33.2361 39.6196 31.4415 35.5314 29.4883C35.2306 29.5002 34.9297 29.5193 34.6289 29.5475C39.1849 31.7448 43.8283 33.7444 48.5589 35.5462C48.3771 35.3156 48.1892 35.0901 47.9953 34.8703" fill="#FFB11A"/>
<path fill-rule="evenodd" clip-rule="evenodd" d="M47.3228 34.1496C47.1905 34.0173 47.0555 33.8879 46.9216 33.7596C43.4507 32.4459 40.0247 31.0216 36.644 29.4867C36.291 29.4745 35.938 29.4745 35.585 29.4867C39.5441 31.3085 43.5686 32.9798 47.6587 34.5006C47.5498 34.3836 47.4389 34.2679 47.3259 34.1536" fill="#FFB11A"/>
<path d="M45.474 32.5538C42.9945 31.6291 40.5373 30.6449 38.1026 29.6016C37.6438 29.5433 37.1839 29.5053 36.7227 29.4873C39.9496 30.9005 43.2189 32.2089 46.53 33.4122C46.1911 33.1127 45.8397 32.8283 45.4761 32.5588L45.474 32.5538ZM42.4246 30.7975C42.0012 30.6364 41.5777 30.4733 41.1543 30.3081C40.2142 29.9915 39.246 29.7645 38.263 29.6304C40.4838 30.5408 42.7234 31.4018 44.9817 32.2134C44.1742 31.6628 43.3172 31.1888 42.4215 30.7975" fill="#FFB11A"/>
<path d="M51.1425 22.1293C50.9794 21.7041 50.8178 21.2786 50.6579 20.8527C50.2704 19.9525 49.8006 19.09 49.2539 18.2766C50.0601 20.5496 50.9155 22.8034 51.82 25.0384C51.6866 24.0504 51.4611 23.0768 51.1472 22.1303L51.1425 22.1293ZM51.8412 25.2019C50.8062 22.7517 49.8294 20.2781 48.911 17.7812C48.6434 17.4155 48.3606 17.0618 48.0625 16.7202C49.2566 20.0495 50.5541 23.3394 51.9554 26.5897C51.9374 26.1258 51.8996 25.663 51.842 25.2008" fill="#FFC556"/>
<path fill-rule="evenodd" clip-rule="evenodd" d="M51.9545 26.6694C50.4294 23.2692 49.0139 19.8229 47.7076 16.3305C47.4709 16.0742 47.2263 15.8262 46.9736 15.5864C48.4805 19.6965 50.1405 23.7468 51.954 27.737C51.965 27.381 51.965 27.026 51.954 26.67" fill="#FFC556"/>
<path fill-rule="evenodd" clip-rule="evenodd" d="M51.9544 27.7864C50.0156 23.6747 48.2316 19.4945 46.6024 15.2453C46.3852 15.0507 46.1616 14.8622 45.9316 14.6797C47.722 19.433 49.7101 24.1036 51.8962 28.6918C51.9234 28.3909 51.9414 28.0901 51.9533 27.7893" fill="#FFC556"/>
<path fill-rule="evenodd" clip-rule="evenodd" d="M51.8917 28.7236C49.5724 24.0319 47.4529 19.2482 45.5329 14.3725C45.3255 14.2181 45.1151 14.0717 44.9014 13.9253C46.961 19.2281 49.2601 24.4264 51.7985 29.5199C51.8365 29.2542 51.8678 28.9894 51.8937 28.7176" fill="#FFC556"/>
<path fill-rule="evenodd" clip-rule="evenodd" d="M51.7911 29.5368C49.1168 24.3544 46.6793 19.0589 44.4786 13.6505C44.2781 13.5272 44.0774 13.4068 43.877 13.2925C46.2008 19.0686 48.8 24.7227 51.6748 30.2548C51.7209 30.0163 51.7612 29.7766 51.7961 29.5361" fill="#FFC556"/>
<path fill-rule="evenodd" clip-rule="evenodd" d="M51.672 30.268C48.6555 24.6623 45.9098 18.9246 43.435 13.0549C43.2444 12.9546 43.0518 12.8587 42.8574 12.7671C45.4409 18.9632 48.3353 25.025 51.5298 30.9295C51.582 30.7121 51.6302 30.4948 51.6722 30.2736" fill="#FFC556"/>
<path fill-rule="evenodd" clip-rule="evenodd" d="M51.5273 30.9344C48.1847 24.9595 45.1385 18.8318 42.3887 12.5509C42.2033 12.4697 42.0157 12.3935 41.8271 12.3203C44.6763 18.8874 47.8617 25.3035 51.3705 31.543C51.4257 31.3425 51.4799 31.1418 51.528 30.9344" fill="#FFC556"/>
<path fill-rule="evenodd" clip-rule="evenodd" d="M51.3673 31.5486C47.7052 25.2504 44.3624 18.7809 41.3393 12.1404C41.1611 12.0776 40.9809 12.0181 40.7988 11.9619C43.9133 18.8561 47.3837 25.5841 51.1963 32.1181C51.2564 31.9266 51.3144 31.736 51.3678 31.5457" fill="#FFC556"/>
<path fill-rule="evenodd" clip-rule="evenodd" d="M51.1967 32.126C47.2244 25.5404 43.5843 18.7598 40.2903 11.81C40.1137 11.7619 39.9373 11.7177 39.7598 11.6763C43.1442 18.8613 46.8999 25.8656 51.0111 32.6608C51.0779 32.4803 51.1376 32.3019 51.1967 32.1233" fill="#FFC556"/>
<path fill-rule="evenodd" clip-rule="evenodd" d="M39.2361 11.5596C39.0656 11.5261 38.8943 11.4951 38.7227 11.4663C42.3785 18.8979 46.4132 26.137 50.8112 33.1548L50.8202 33.1716C50.8895 33.002 50.9516 32.8317 51.0128 32.6602C46.7403 25.8272 42.8147 18.7951 39.2361 11.5636" fill="#FFC556"/>
<path fill-rule="evenodd" clip-rule="evenodd" d="M38.1783 11.3863C38.0111 11.3632 37.8439 11.3442 37.6768 11.3271C41.6127 18.9764 45.9302 26.4231 50.6129 33.6393L50.6219 33.6562C50.6912 33.4946 50.7603 33.3353 50.8224 33.1729L50.8134 33.1587C46.252 26.1074 42.0404 18.85 38.1783 11.3863Z" fill="#FFC556"/>
<path fill-rule="evenodd" clip-rule="evenodd" d="M37.1182 11.2808C36.9558 11.2708 36.7933 11.2641 36.6309 11.2588C41.0019 19.3514 45.6198 27.0137 50.3941 34.0965L50.4054 34.1131C50.4794 33.9608 50.5487 33.8123 50.6169 33.6539L50.6079 33.6373C45.7602 26.4037 41.2638 18.9516 37.1182 11.2808Z" fill="#FFC556"/>
<path d="M36.0582 11.25C35.8998 11.25 35.7407 11.25 35.583 11.259C40.247 19.502 45.1455 27.3206 50.1806 34.547L50.1878 34.5541C50.2618 34.4086 50.3351 34.2612 50.4049 34.1138L50.3939 34.0972C44.7263 25.9499 39.905 18.0356 36.056 11.25H36.0582Z" fill="#FFC556"/>
<path d="M35.0023 11.2852C34.848 11.2962 34.6934 11.3102 34.5391 11.3253C39.3325 19.4306 44.4757 27.311 49.9691 34.9664C50.0434 34.8284 50.1163 34.6907 50.1878 34.553L50.1806 34.5461C44.7876 27.0158 39.7289 19.2621 35.0044 11.2852" fill="#FFC556"/>
<path fill-rule="evenodd" clip-rule="evenodd" d="M33.5038 11.4656C38.5845 19.6545 43.9951 27.6238 49.735 35.3733C49.8133 35.2439 49.8894 35.1116 49.9616 34.9782C44.3078 27.339 38.9715 19.479 33.9524 11.3984C33.8019 11.4185 33.6516 11.4415 33.502 11.4653" fill="#FFC556"/>
<path fill-rule="evenodd" clip-rule="evenodd" d="M32.4736 11.6714C37.8388 19.9158 43.5112 27.9469 49.4913 35.7648C49.5734 35.6383 49.6517 35.511 49.7278 35.3836C43.8253 27.6614 38.2197 19.7256 32.9108 11.5762C32.7646 11.6063 32.619 11.6373 32.4736 11.6765" fill="#FFC556"/>
<path fill-rule="evenodd" clip-rule="evenodd" d="M31.46 11.9446C36.164 18.8278 42.2251 27.2745 49.2446 36.1442C49.327 36.0216 49.4078 35.8983 49.4874 35.7741C43.3483 27.9943 37.4801 20.0105 31.883 11.8232C31.7414 11.8623 31.601 11.9025 31.4606 11.9446" fill="#FFC556"/>
<path fill-rule="evenodd" clip-rule="evenodd" d="M30.871 12.1396C30.7345 12.1878 30.5981 12.2399 30.4629 12.2891L30.7144 12.639C35.5771 19.3969 41.8184 27.7222 48.9914 36.5055L49.2391 36.1476C42.9416 28.415 36.8808 20.4979 31.0564 12.3964L30.871 12.1396Z" fill="#FFC556"/>
<path fill-rule="evenodd" clip-rule="evenodd" d="M29.8823 12.5254C29.7511 12.5806 29.6206 12.6387 29.4912 12.6989L29.9927 13.3697C36.0349 21.3601 42.2793 29.1916 48.726 36.8643C48.8122 36.7473 48.8984 36.6337 48.9807 36.5174C42.4067 28.6883 36.0407 20.6909 29.8823 12.5254Z" fill="#FFC556"/>
<path fill-rule="evenodd" clip-rule="evenodd" d="M28.5576 13.1692C34.2285 20.3202 41.0053 28.5983 48.4652 37.203C48.5554 37.0916 48.6416 36.9793 48.7268 36.8661C41.9579 29.0458 35.3609 21.081 28.9356 12.9717C28.8094 13.0358 28.6838 13.101 28.5585 13.1722" fill="#FFC556"/>
<path d="M27.6401 13.7094C34.3541 21.7692 41.2045 29.712 48.1914 37.538C48.2816 37.4295 48.3719 37.3206 48.4603 37.2099C41.5073 29.4195 34.6885 21.5122 28.0031 13.4878C27.8818 13.559 27.7634 13.6332 27.6442 13.7094H27.6401ZM26.7635 14.3111C32.8275 21.2334 40.0577 29.3363 47.9106 37.8617L48.1844 37.5443C40.3585 29.0471 33.1535 20.9707 27.1026 14.0684C26.9872 14.1476 26.8729 14.2289 26.7597 14.3111H26.7635ZM25.9182 14.9749C32.1667 21.7579 39.5935 29.7327 47.6147 38.1756C47.7151 38.0755 47.8064 37.9751 47.8989 37.8669C40.6213 30.201 33.401 22.4814 26.2384 14.7082C26.1293 14.7944 26.0213 14.8847 25.9166 14.9756L25.9182 14.9749ZM25.1204 15.6943C32.5037 23.3094 39.9042 30.9063 47.3222 38.485C47.4226 38.3847 47.518 38.2843 47.6132 38.1839C40.201 30.61 32.8073 23.0172 25.432 15.4052C25.3316 15.4994 25.2263 15.5957 25.126 15.693L25.1204 15.6943ZM24.381 16.4641C30.9634 22.9222 38.736 30.5745 47.0171 38.7845C47.1175 38.6841 47.2176 38.5899 47.318 38.4895C39.0308 30.2766 31.2512 22.6194 24.6668 16.1562L24.381 16.4641ZM23.6871 17.283C30.4178 23.5626 38.3279 31.0213 46.7044 39.0749C46.8045 38.9816 46.9109 38.8873 47.0122 38.7908C38.6197 30.7203 30.6936 23.2473 23.9528 16.9568C23.8626 17.0641 23.7742 17.1724 23.6871 17.2827V17.283ZM23.0519 18.1461C30.9132 25.1195 38.6906 32.1904 46.3838 39.3582L46.6985 39.0806C38.9849 31.8916 31.1832 24.798 23.294 17.7998C23.2117 17.9131 23.1305 18.0285 23.0513 18.1448L23.0519 18.1461ZM22.4736 19.0473C30.4526 25.7754 38.3119 32.6379 46.0514 39.6347L46.3763 39.365C38.6006 32.3367 30.7067 25.4436 22.6942 18.6853C22.619 18.8066 22.5448 18.926 22.4736 19.0473Z" fill="#FFC556"/>
<path fill-rule="evenodd" clip-rule="evenodd" d="M21.963 19.9875C30.0227 26.4548 37.9389 33.0937 45.7113 39.904C45.8247 39.8178 45.9369 39.7316 46.0456 39.6414C38.2316 32.7902 30.2697 26.1126 22.1605 19.6084C22.0937 19.7337 22.0268 19.8601 21.96 19.9875" fill="#FFC556"/>
<path d="M21.6918 20.5498C21.6317 20.6802 21.5749 20.8125 21.5184 20.9449L22.1033 21.3922C28.6636 26.4192 36.7672 32.8431 45.3613 40.1646C45.4765 40.0809 45.5919 39.9941 45.7062 39.9079C37.8724 33.2448 29.8667 26.7936 21.6892 20.5538L21.6918 20.5498ZM21.2881 21.5326C21.2369 21.6679 21.1878 21.8053 21.1396 21.9417L21.3964 22.1272C29.4469 27.9881 37.3158 34.0867 45.0034 40.4234C45.1215 40.3422 45.241 40.2589 45.3593 40.1736C37.6362 33.8046 29.7272 27.6733 21.6327 21.7799L21.2841 21.5255" fill="#FFC556"/>
<path fill-rule="evenodd" clip-rule="evenodd" d="M20.8213 22.9529C27.6032 27.6529 35.9044 33.6829 44.6247 40.6689L44.9887 40.4264C37.1826 34.1858 29.1679 28.2206 20.9449 22.5308C20.9018 22.6712 20.8614 22.8116 20.8236 22.9529" fill="#FFC556"/>
<path fill-rule="evenodd" clip-rule="evenodd" d="M20.5744 23.9853C28.6711 29.3248 36.5578 34.9649 44.2343 40.9056C44.3628 40.8293 44.4892 40.7501 44.6155 40.6697C36.8539 34.6591 28.8715 28.9511 20.6686 23.5459C20.6335 23.6915 20.6018 23.8377 20.5684 23.9853" fill="#FFC556"/>
<path fill-rule="evenodd" clip-rule="evenodd" d="M20.3965 25.0347C28.4229 30.0848 36.2344 35.4554 43.8309 41.1463C43.9623 41.0723 44.0948 40.996 44.2239 40.9177C36.5339 35.1471 28.6139 29.7037 20.4637 24.5874C20.4387 24.7368 20.4156 24.8882 20.3945 25.0376" fill="#FFC556"/>
<path fill-rule="evenodd" clip-rule="evenodd" d="M20.2871 26.0909C28.2105 30.8442 35.9158 35.9357 43.4027 41.3654L43.4106 41.3724C43.5481 41.2993 43.6835 41.2271 43.8187 41.1499C36.2209 35.6311 28.3905 30.4568 20.3272 25.6265C20.3105 25.7831 20.2971 25.9374 20.2871 26.0918" fill="#FFC556"/>
<path fill-rule="evenodd" clip-rule="evenodd" d="M20.259 26.6789C20.259 26.8375 20.251 26.9966 20.25 27.1552C28.0357 31.6138 35.6044 36.4216 42.9563 41.5788L42.9732 41.5919C43.1206 41.5217 43.2659 41.4474 43.4104 41.3714L43.4034 41.3662C36.2223 36.3001 28.4495 31.3717 20.2587 26.6782" fill="#FFC556"/>
<path d="M20.2607 27.7295C20.2607 27.8951 20.2738 28.0575 20.2848 28.2209C27.9061 32.3892 35.3124 36.9142 42.5038 41.7958L42.5178 41.8039C42.6712 41.7346 42.8186 41.6655 42.9752 41.5913L42.9583 41.5803C35.9194 36.7779 28.3032 32.1289 20.2607 27.7295Z" fill="#FFC556"/>
<path d="M20.3271 28.7832C20.3439 28.9517 20.3632 29.1191 20.3863 29.2845C27.8024 33.1622 35.0145 37.3991 42.0226 41.9961L42.0377 42.004C42.1972 41.941 42.3576 41.8728 42.5171 41.8035L42.503 41.7934C35.3358 37.0857 27.9349 32.7434 20.3292 28.7832" fill="#FFC556"/>
<path fill-rule="evenodd" clip-rule="evenodd" d="M20.465 29.8347C20.4951 30.0082 20.5262 30.1796 20.5653 30.3511C27.7446 33.9493 34.7335 37.8991 41.5319 42.2009C41.6991 42.1408 41.8698 42.0765 42.0332 42.0063L42.0192 41.9984C35.0469 37.5749 27.8505 33.5148 20.459 29.8345" fill="#FFC556"/>
<path d="M20.8054 31.4138C27.7149 34.7297 34.4523 38.3924 40.9917 42.3884C41.1701 42.3293 41.3496 42.2672 41.5265 42.201C34.7758 38.0662 27.8134 34.2875 20.668 30.8804C20.7111 31.0588 20.7542 31.2354 20.8034 31.4118" fill="#FFC556"/>
<path fill-rule="evenodd" clip-rule="evenodd" d="M21.1326 32.4728C27.7269 35.5112 34.1646 38.8788 40.4214 42.5629C40.612 42.5067 40.8024 42.4495 40.992 42.3894C34.5001 38.5543 27.812 35.0619 20.9551 31.9263C21.0112 32.1087 21.0694 32.2901 21.1326 32.4708" fill="#FFC556"/>
<path fill-rule="evenodd" clip-rule="evenodd" d="M21.5421 33.5256C27.7807 36.2888 33.8713 39.354 39.8131 42.7214C40.0135 42.6721 40.2142 42.621 40.4197 42.5618C34.222 39.0327 27.8453 35.8278 21.3154 32.96C21.3856 33.1517 21.4618 33.3382 21.5421 33.5256Z" fill="#FFC556"/>
<path fill-rule="evenodd" clip-rule="evenodd" d="M22.0396 34.5784C27.8732 37.0666 33.5788 39.829 39.1563 42.8651C39.375 42.8242 39.5935 42.7749 39.8102 42.7227C33.9444 39.5119 27.92 36.6 21.7598 33.9985C21.852 34.199 21.9473 34.3885 22.0456 34.5811" fill="#FFC556"/>
<path fill-rule="evenodd" clip-rule="evenodd" d="M22.6384 35.633C27.6935 37.724 33.0392 40.1648 38.4253 42.9908C38.664 42.9559 38.9021 42.9154 39.1394 42.8693C33.6515 39.9805 28.0316 37.3655 22.2803 35.0244C22.3956 35.2249 22.5128 35.4317 22.6384 35.6261" fill="#FFC556"/>
<path fill-rule="evenodd" clip-rule="evenodd" d="M23.3544 36.6914C28.1973 38.6208 32.9515 40.7531 37.6171 43.0884C37.8811 43.0643 38.1436 43.0313 38.4073 42.993C33.3514 40.4426 28.1858 38.1299 22.9111 36.0547C23.0536 36.2702 23.203 36.482 23.3555 36.6914" fill="#FFC556"/>
<path fill-rule="evenodd" clip-rule="evenodd" d="M24.2226 37.7689C28.276 39.3433 32.4695 41.1313 36.6874 43.1505C36.9862 43.1395 37.287 43.1203 37.5898 43.0933C33.0352 40.8953 28.3934 38.8953 23.665 37.0933C23.8441 37.3221 24.0313 37.5473 24.2266 37.7692" fill="#FFC556"/>
<path fill-rule="evenodd" clip-rule="evenodd" d="M24.8935 38.489C25.0249 38.6229 25.161 38.7527 25.2946 38.8812C28.6579 40.1567 32.1085 41.5767 35.5704 43.1531C35.9239 43.1652 36.2776 43.1652 36.6313 43.1531C32.6708 41.3301 28.646 39.6588 24.5566 38.1392C24.6658 38.2562 24.7762 38.3718 24.8908 38.4861" fill="#FFC556"/>
<path d="M26.7415 40.0851C29.2219 41.0099 31.6793 41.9936 34.114 43.0362C34.5724 43.0934 35.0334 43.1316 35.4949 43.1485C32.2672 41.7407 28.9975 40.437 25.6855 39.2378C26.0284 39.5386 26.3785 39.8226 26.7415 40.0892V40.0851ZM29.792 41.8509L31.0621 42.3374C32.002 42.6542 32.9697 42.881 33.9523 43.0153C31.7308 42.1054 29.4912 41.245 27.2335 40.4341C28.0408 40.9845 28.8981 41.4583 29.7938 41.8489" fill="#FFC556"/>
</svg>
