<svg width="32" height="32" viewBox="0 0 32 32" fill="none" xmlns="http://www.w3.org/2000/svg">
<path d="M22.6667 2.66674H26.2267C26.9813 2.6534 27.7146 2.91759 28.2873 3.40917C28.8599 3.90074 29.2322 4.58549 29.3334 5.33341V14.6667C29.2322 15.4147 28.8599 16.0994 28.2873 16.591C27.7146 17.0826 26.9813 17.3468 26.2267 17.3334H22.6667M13.3334 20.0001V25.3334C13.3334 26.3943 13.7548 27.4117 14.5049 28.1618C15.2551 28.912 16.2725 29.3334 17.3334 29.3334L22.6667 17.3334V2.66674H7.62671C6.9836 2.65947 6.35954 2.88487 5.8695 3.3014C5.37946 3.71793 5.05647 4.29753 4.96004 4.93341L3.12004 16.9334C3.06203 17.3156 3.08781 17.7058 3.19559 18.0771C3.30337 18.4483 3.49057 18.7917 3.74423 19.0834C3.99789 19.3751 4.31193 19.6082 4.66461 19.7665C5.01729 19.9247 5.40016 20.0045 5.78671 20.0001H13.3334Z" stroke="#3794D0" stroke-width="2" stroke-linecap="round" stroke-linejoin="round"/>
</svg>
