<svg width="24" height="29" viewBox="0 0 24 29" fill="none" xmlns="http://www.w3.org/2000/svg">
<path d="M5.20711 1.80005C4.63002 1.79999 4.10091 1.79992 3.6705 1.85779C3.19652 1.92152 2.69556 2.07144 2.28352 2.48348C1.87149 2.89551 1.72156 3.39647 1.65784 3.87045C1.59997 4.30086 1.60003 4.82997 1.6001 5.40706L1.60011 26.8001C1.60011 27.3523 2.04782 27.8001 2.60011 27.8001C3.15239 27.8001 3.60011 27.3523 3.60011 26.8001L3.60011 18.4667H18.864C20.7433 18.4667 22.2668 16.9433 22.2668 15.064C22.2668 13.9435 21.7151 12.8948 20.7918 12.26L20.4168 12.0022C19.1061 11.1011 19.1061 9.16573 20.4168 8.26461L20.7918 8.00681C21.7151 7.37201 22.2668 6.32332 22.2668 5.20281C22.2668 3.32352 20.7433 1.80006 18.864 1.80006L5.20711 1.80005Z" stroke="#3794D0" stroke-width="2"/>
</svg>
