<svg width="32" height="24" viewBox="0 0 32 24" fill="none" xmlns="http://www.w3.org/2000/svg">
<path fill-rule="evenodd" clip-rule="evenodd" d="M8.65252 1.66675C4.1808 1.66675 0.745815 5.62732 1.37821 10.0541L1.68607 12.2091L3.62777 19.0051C4.19066 20.9752 5.99133 22.3334 8.04025 22.3334C9.60174 22.3334 11.0561 21.5394 11.9005 20.2259L12.3996 19.4495C14.0843 16.8288 17.9151 16.8288 19.5998 19.4495L19.9051 19.9244C20.8703 21.4258 22.5327 22.3334 24.3176 22.3334C26.928 22.3334 29.1412 20.4139 29.5104 17.8297L30.6212 10.0541C31.2536 5.62732 27.8186 1.66675 23.3469 1.66675C22.3187 1.66675 21.302 1.88251 20.3625 2.30008L19.6545 2.61473C18.2874 3.22233 17.734 3.46275 17.1764 3.58111C16.4006 3.7458 15.5988 3.7458 14.823 3.58111C14.2654 3.46275 13.712 3.22233 12.3449 2.61473L11.6369 2.30007C10.6974 1.88251 9.68067 1.66675 8.65252 1.66675Z" stroke="#3794D0" stroke-width="2"/>
<path fill-rule="evenodd" clip-rule="evenodd" d="M9.33293 7.00008C9.88521 7.00008 10.3329 7.4478 10.3329 8.00008V9.66675H11.9996C12.5519 9.66675 12.9996 10.1145 12.9996 10.6667C12.9996 11.219 12.5519 11.6667 11.9996 11.6667H10.3329V13.3334C10.3329 13.8857 9.88521 14.3334 9.33293 14.3334C8.78064 14.3334 8.33293 13.8857 8.33293 13.3334V11.6667H6.66626C6.11397 11.6667 5.66626 11.219 5.66626 10.6667C5.66626 10.1145 6.11397 9.66675 6.66626 9.66675H8.33293V8.00008C8.33293 7.4478 8.78064 7.00008 9.33293 7.00008ZM22.6663 9.33341C23.4027 9.33341 23.9997 8.73646 23.9997 8.00008C23.9997 7.2637 23.4027 6.66675 22.6663 6.66675C21.93 6.66675 21.333 7.2637 21.333 8.00008C21.333 8.73646 21.93 9.33341 22.6663 9.33341ZM19.9997 12.0001C20.7361 12.0001 21.333 11.4031 21.333 10.6667C21.333 9.93037 20.7361 9.33341 19.9997 9.33341C19.2633 9.33341 18.6663 9.93037 18.6663 10.6667C18.6663 11.4031 19.2633 12.0001 19.9997 12.0001ZM26.6663 10.6667C26.6663 11.4031 26.0694 12.0001 25.333 12.0001C24.5966 12.0001 23.9997 11.4031 23.9997 10.6667C23.9997 9.93037 24.5966 9.33341 25.333 9.33341C26.0694 9.33341 26.6663 9.93037 26.6663 10.6667ZM22.6663 14.6667C23.4027 14.6667 23.9997 14.0698 23.9997 13.3334C23.9997 12.597 23.4027 12.0001 22.6663 12.0001C21.93 12.0001 21.333 12.597 21.333 13.3334C21.333 14.0698 21.93 14.6667 22.6663 14.6667Z" fill="#3794D0"/>
</svg>
