<svg width="24" height="30" viewBox="0 0 24 30" fill="none" xmlns="http://www.w3.org/2000/svg">
<path d="M17.3333 4.33325H19.9999C20.7072 4.33325 21.3854 4.6142 21.8855 5.1143C22.3856 5.6144 22.6666 6.29267 22.6666 6.99992V25.6666C22.6666 26.3738 22.3856 27.0521 21.8855 27.5522C21.3854 28.0523 20.7072 28.3333 19.9999 28.3333H3.99992C3.29267 28.3333 2.6144 28.0523 2.1143 27.5522C1.6142 27.0521 1.33325 26.3738 1.33325 25.6666V6.99992C1.33325 6.29267 1.6142 5.6144 2.1143 5.1143C2.6144 4.6142 3.29267 4.33325 3.99992 4.33325H6.66658" stroke="#3794D0" stroke-width="2" stroke-linecap="round" stroke-linejoin="round"/>
<path d="M16.0001 1.66675H8.00008C7.2637 1.66675 6.66675 2.2637 6.66675 3.00008V5.66675C6.66675 6.40313 7.2637 7.00008 8.00008 7.00008H16.0001C16.7365 7.00008 17.3334 6.40313 17.3334 5.66675V3.00008C17.3334 2.2637 16.7365 1.66675 16.0001 1.66675Z" stroke="#3794D0" stroke-width="2" stroke-linecap="round" stroke-linejoin="round"/>
</svg>
