<svg width="32" height="32" viewBox="0 0 32 32" fill="none" xmlns="http://www.w3.org/2000/svg">
<path d="M26.666 2.66666H5.33268C3.85992 2.66666 2.66602 3.86056 2.66602 5.33332V10.6667C2.66602 12.1394 3.85992 13.3333 5.33268 13.3333H26.666C28.1388 13.3333 29.3327 12.1394 29.3327 10.6667V5.33332C29.3327 3.86056 28.1388 2.66666 26.666 2.66666Z" stroke="#3794D0" stroke-width="2" stroke-linecap="round" stroke-linejoin="round"/>
<path d="M26.666 18.6667H5.33268C3.85992 18.6667 2.66602 19.8606 2.66602 21.3333V26.6667C2.66602 28.1394 3.85992 29.3333 5.33268 29.3333H26.666C28.1388 29.3333 29.3327 28.1394 29.3327 26.6667V21.3333C29.3327 19.8606 28.1388 18.6667 26.666 18.6667Z" stroke="#3794D0" stroke-width="2" stroke-linecap="round" stroke-linejoin="round"/>
<path d="M8 8H8.01333" stroke="#3794D0" stroke-width="2" stroke-linecap="round" stroke-linejoin="round"/>
<path d="M8 24H8.01333" stroke="#3794D0" stroke-width="2" stroke-linecap="round" stroke-linejoin="round"/>
</svg>
